<?xml version="1.0" standalone="no"?>
<!DOCTYPE svg PUBLIC "-//W3C//DTD SVG 1.1//EN" "http://www.w3.org/Graphics/SVG/1.1/DTD/svg11.dtd" >
<svg>
<metadata>
Created by FontForge 20090914 at Wed Feb 24 15:42:05 2016
 By www-data
Copyright (c) 1992 Image Club Graphics, Inc.
</metadata>
<defs>
<font id="FranklinBold" horiz-adv-x="1397" >
  <font-face 
    font-family="Franklin Gothic"
    font-weight="7"
    font-stretch="normal"
    units-per-em="1914"
    panose-1="0 0 0 0 0 0 0 0 0 0"
    ascent="1531"
    descent="-383"
    x-height="1155"
    cap-height="1538"
    bbox="-120 -480.999 2158 2102"
    underline-thickness="20"
    underline-position="-128"
    unicode-range="U+0020-U+25CA"
  />
<missing-glyph horiz-adv-x="1538" 
d="M96 0v1538h1346v-1538h-1346zM1346 96v1346h-1154v-1346h1154z" />
    <glyph glyph-name=".notdef" horiz-adv-x="1538" 
d="M96 0v1538h1346v-1538h-1346zM1346 96v1346h-1154v-1346h1154z" />
    <glyph glyph-name="space" unicode=" " horiz-adv-x="699" 
 />
    <glyph glyph-name="exclam" unicode="!" horiz-adv-x="629" 
d="M532 1532l-109 -1075h-204l-106 1075h419zM492 -3h-339v349h339v-349z" />
    <glyph glyph-name="quotedbl" unicode="&#x22;" horiz-adv-x="920" 
d="M931 1250l-93 -288h-119l-92 282v294h304v-288zM414 1250l-93 -288h-119l-92 282v294h304v-288z" />
    <glyph glyph-name="numbersign" unicode="#" horiz-adv-x="1434" 
d="M1334 881h-220l-51 -267h208v-241h-261l-74 -374h-241l70 374h-213l-77 -375h-240l74 370h-202v246h252l50 265h-212v243h261l80 414h240l-82 -415h222l83 419h234l-80 -418h179v-241zM873 882h-223l-53 -267h223z" />
    <glyph glyph-name="dollar" unicode="$" horiz-adv-x="1375" 
d="M1275 562c0 -129.333 -48.0049 -239.334 -144.005 -330.001c-90.667 -86 -205.667 -137.667 -345 -155v-208h-186v208c-53.333 0 -116 15.667 -188 47c-84 36.667 -151.667 84.334 -203 143.001c-26 30 -46.833 61.167 -62.5 93.5s-28.5 69.5 -38.5 111.5l308 69
c18 -62 51.833 -110.833 101.5 -146.5s107.834 -53.5 174.501 -53.5c93.333 0 158.333 14.333 195 43c31.333 24.667 47 61 47 109c0 64 -64.333 113.667 -193 149c-196 54 -316 93.333 -360 118c-129.333 72 -194 184 -194 336c0 106.667 27.833 196 83.5 268
s141.834 125 258.501 159c24.667 6.66699 47.334 10 68.001 10v118h185v-112c26.667 0 68.334 -8.33301 125.001 -25c74.667 -22 132.5 -49.833 173.5 -83.5s72.5 -67 94.5 -100s41 -75.167 57 -126.5l-276 -92c-19.333 55.333 -42.333 93.666 -69 114.999
c-32.667 26.667 -85 43.667 -157 51c-6 0.666992 -11.667 1.16699 -17 1.5s-12 0.5 -20 0.5c-46.667 0 -85.667 -8.33301 -117 -25c-37.333 -20 -58.333 -49 -63 -87c-0.666992 -4 -1 -10 -1 -18c0 -64 65.667 -111.333 197 -142c198.667 -46 321.334 -81.333 368.001 -106
c132 -69.333 198 -182.666 198 -339.999z" />
    <glyph glyph-name="percent" unicode="%" horiz-adv-x="1650" 
d="M737 1143c0 -114 -21.001 -204.332 -63.001 -270.999c-52.667 -82.667 -135.667 -124 -249 -124c-105.333 0 -187.666 41.333 -246.999 124c-52.667 73.333 -79 164.666 -79 273.999c0 105.333 25.667 194 77 266c58 81.333 137 122 237 122
c112.667 0 197 -40.333 253 -121c47.333 -68 71 -158 71 -270zM1338 1533l-851 -1532h-174l851 1532h174zM1557 403.001c0 -114 -21.001 -204.332 -63.001 -270.999c-52.667 -82.667 -135.667 -124 -249 -124c-105.333 0 -187.666 41.333 -246.999 124
c-52.667 73.333 -79 164.333 -79 273c0 105.333 25.667 193.666 77 264.999c57.333 80 136.333 120 237 120c112 0 196.333 -40 253 -120c47.333 -67.333 71 -156.333 71 -267zM525.998 1165c0 75.333 -3.66895 125.999 -11.002 151.999c-14.667 52 -46.667 78 -96 78
c-56.667 0 -91 -42.667 -103 -128c-4.66699 -33.333 -7 -76.666 -7 -129.999c0 -78.667 4.33301 -132.667 13 -162c16.667 -56 52.334 -84 107.001 -84c40.667 0 68.334 21.667 83.001 65c10 29.333 15 76 15 140c0 11.333 -0.166992 22.833 -0.5 34.5
s-0.5 23.167 -0.5 34.5zM1351 419.001c0 72 -4.66797 123 -14.001 153c-16 52 -48.667 78 -98 78c-56.667 0 -91 -42.667 -103 -128c-4.66699 -33.333 -7 -77 -7 -131c0 -78 4.33301 -131.667 13 -161c16.667 -55.333 52.334 -83 107.001 -83c43.333 0 72.333 24 87 72
c10 32 15 82.667 15 152v48z" />
    <glyph glyph-name="ampersand" unicode="&#x26;" horiz-adv-x="1749" 
d="M1643 41c-27.333 -8.66699 -52.5 -14.6689 -75.5 -18.002s-49.5 -5 -79.5 -5c-70.667 0 -131.5 10.833 -182.5 32.5s-101.833 58.5 -152.5 110.5c-59.333 -52.667 -127.333 -93.167 -204 -121.5s-161.334 -42.5 -254.001 -42.5c-172 0 -311.5 41.333 -418.5 124
s-167.167 197 -180.5 343c-0.666992 5.33301 -1 11 -1 17v14c0 104.667 46.667 200.334 140 287.001c78.667 72.667 160 117 244 133c-34 26 -65.333 68 -94 126c-33.333 66.667 -50 130.667 -50 192c0 106 50 191.667 150 257c90 58.667 196.667 88 320 88
c144.667 0 259 -37 343 -111c78.667 -69.333 118 -159.333 118 -270c0 -96 -38.667 -182.333 -116 -259c-58 -57.333 -113.333 -93 -166 -107l206 -226c21.333 26 38.666 49.833 51.999 71.5s26.333 47.167 39 76.5s22 54 28 74s11.667 45.333 17 76l317 -47
c-9.33301 -38.667 -18 -70 -26 -94s-20.667 -56.333 -38 -97c-26.667 -60.667 -53.667 -112.5 -81 -155.5s-62.666 -89.833 -105.999 -140.5c13.333 -13.333 26.333 -24.166 39 -32.499s29 -16.5 49 -24.5c3.33301 -1.33301 15.833 -3.5 37.5 -6.5s40.834 -4.5 57.501 -4.5
c17.333 0 30 0.5 38 1.5s18 3.5 30 7.5v-269zM985 1196c0 32 -15.334 63.999 -46.001 95.999c-34 35.333 -73 53 -117 53c-17.333 0 -33.666 -2.5 -48.999 -7.5s-32.333 -13.5 -51 -25.5c-14 -10 -25.167 -23.5 -33.5 -40.5s-12.5 -34.833 -12.5 -53.5
c0 -33.333 11 -61.666 33 -84.999l118 -118c22 0 51.667 16.333 89 49c46 40 69 84 69 132zM970.999 368.997l-313 340.001c-47.333 -9.33301 -86.166 -29.333 -116.499 -60s-50.166 -70 -59.499 -118c-2.66699 -11.333 -4 -24.333 -4 -39
c0 -58.667 25 -108.334 75 -149.001s111.667 -61 185 -61c31.333 0 62.666 4.33301 93.999 13s57.166 18.167 77.499 28.5s40.833 25.5 61.5 45.5z" />
    <glyph glyph-name="quotesingle" unicode="'" horiz-adv-x="500" 
d="M418 1226l-98 -262h-119l-93 281v293l308 1z" />
    <glyph glyph-name="parenleft" unicode="(" horiz-adv-x="756" 
d="M650 1698c-97.333 -168 -164.999 -323.333 -202.999 -466s-57 -311.667 -57 -507c0 -187.333 18.167 -349.833 54.5 -487.5s101.166 -289.5 194.499 -455.5h-235c-76 97.333 -140.333 207 -193 329c-45.333 104.667 -80.333 216.667 -105 336
c-22 106 -33 203.333 -33 292c0 80 10.667 172 32 276c25.333 122 60.333 237 105 345c53.333 128 118 240.667 194 338h246z" />
    <glyph glyph-name="parenright" unicode=")" horiz-adv-x="774" 
d="M673 739c0 -90.667 -10.666 -187.668 -31.999 -291.001c-24.667 -118 -59.667 -230 -105 -336c-52 -120.667 -116.667 -230.667 -194 -330h-235c93.333 166.667 158.166 318.334 194.499 455.001s54.5 299.334 54.5 488.001c0 197.333 -18.667 366.166 -56 506.499
s-105.333 295.833 -204 466.5h246c74.667 -96 139 -208.333 193 -337c44.667 -107.333 79.667 -222.333 105 -345c22 -106.667 33 -199 33 -277z" />
    <glyph glyph-name="asterisk" unicode="*" horiz-adv-x="1094" 
d="M996 1373l-325 -101l213 -265l-148 -111l-198 281l-186 -284l-149 107l207 269l-333 96l56 169l319 -108l-14 340h186l-7 -340l321 119z" />
    <glyph glyph-name="plus" unicode="+" horiz-adv-x="1291" 
d="M1203 408h-410v-411h-273v410h-415v277h412v412h278v-411h408v-277z" />
    <glyph glyph-name="comma" unicode="," horiz-adv-x="527" 
d="M441 29l-216 -385h-131l171 357h-163v348h339v-320z" />
    <glyph glyph-name="hyphen" unicode="-" horiz-adv-x="775" 
d="M687 465h-583v273h583v-273z" />
    <glyph glyph-name="period" unicode="." horiz-adv-x="547" 
d="M455 -1h-345v348h345v-348z" />
    <glyph glyph-name="slash" unicode="/" horiz-adv-x="1516" 
d="M1390 1599l-954 -1673h-229l959 1673h224z" />
    <glyph glyph-name="zero" unicode="0" horiz-adv-x="1388" 
d="M1284 756c0 -226 -52.668 -409.668 -158.001 -551.001c-109.333 -146.667 -256.666 -220 -441.999 -220c-188 0 -336.333 82.667 -445 248c-96.667 146.667 -145 324.334 -145 533.001c0 139.333 18.333 265 55 377c42 128 103.667 227 185 297
c94 80.667 210.333 121 349 121c197.333 0 350.333 -85.333 459 -256c94.667 -148 142 -331 142 -549zM913.999 782.999c0 100 -3.66797 178.333 -11.001 235c-11.333 88 -32.666 155.667 -63.999 203c-38 58 -91.667 87 -161 87c-66.667 0 -117.334 -28.333 -152.001 -85
c-28 -46 -46.667 -112.333 -56 -199c-5.33301 -50.667 -8 -127.334 -8 -230.001c0 -110 3 -191.333 9 -244c10.667 -91.333 31.667 -162 63 -212c38 -60.667 92.667 -91 164 -91c68.667 0 120.334 29.667 155.001 89c28.667 48.667 47 118 55 208
c4 44.667 6 124.334 6 239.001z" />
    <glyph glyph-name="one" unicode="1" horiz-adv-x="1441" 
d="M1347 -7l-1249 -1.00195v289h456v858l-428 -228v310c41.333 10.667 74.833 20.834 100.5 30.501s60.834 24.834 105.501 45.501c72.667 34.667 116 56.667 130 66c50.667 33.333 113.334 90.333 188.001 171l266 -1v-1244h431v-296z" />
    <glyph glyph-name="two" unicode="2" horiz-adv-x="1358" 
d="M1259 -1h-1169v297l560 429c65.333 50 118 102.333 158 157c48 66 72 128.333 72 187c0 24 -4.16699 47 -12.5 69s-21.833 43.667 -40.5 65c-22 24.667 -46.5 43.167 -73.5 55.5s-54.5 18.5 -82.5 18.5c-67.333 0 -128.333 -29.833 -183 -89.5s-82 -129.167 -82 -208.5
l-310 76c30 156 90.333 275.333 181 358c101.333 92 239 138 413 138c105.333 0 192.666 -14.333 261.999 -43c77.333 -32 143.666 -85.667 198.999 -161c31.333 -42.667 54.5 -87.167 69.5 -133.5s22.5 -92.833 22.5 -139.5c0 -94 -28 -186 -84 -276
c-51.333 -82.667 -118.333 -151.667 -201 -207l-424 -282h725v-310z" />
    <glyph glyph-name="three" unicode="3" 
d="M1293 436c-16 -166 -83.335 -286.667 -202.002 -362c-98 -62.667 -229.667 -94 -395 -94s-298.666 42.333 -399.999 127c-92.667 78 -157.667 191.333 -195 340l327 47c-1.33301 -6.66699 -2 -12 -2 -16c0 -46 23.333 -93.333 70 -142c54 -56.667 117.333 -85 190 -85
c24.667 0 48.167 2.83301 70.5 8.5s47.166 15.5 74.499 29.5c34.667 18 60.667 42 78 72s26 62 26 96c0 52.667 -17.333 98.334 -52 137.001c-37.333 41.333 -84.666 62 -141.999 62h-238v274h236c41.333 0 77.166 18.167 107.499 54.5s45.5 78.166 45.5 125.499
c0 22 -3.5 42.833 -10.5 62.5s-18.5 38.167 -34.5 55.5c-22 24 -46 41.667 -72 53s-53 17 -81 17c-52 0 -100.167 -17 -144.5 -51s-70.5 -71 -78.5 -111l-6 -34l-321 51c38.667 126.667 107.334 225.834 206.001 297.501s215 107.5 349 107.5
c146.667 0 270.667 -34 372 -102c114.667 -76.667 172 -182.334 172 -317.001c0 -93.333 -23.333 -166.666 -70 -219.999c-37.333 -42.667 -98.666 -80.667 -183.999 -114c89.333 -28 161 -70.333 215 -127c60 -62.667 90 -134 90 -214v-17
c-0.666992 -4.66699 -1 -8.33398 -1 -11.001z" />
    <glyph glyph-name="four" unicode="4" horiz-adv-x="1428" 
d="M1332 347h-214v-349h-358v351h-668v274l617 911h411l1 -921h211v-266zM778 615v636l-411 -636h411z" />
    <glyph glyph-name="five" unicode="5" horiz-adv-x="1376" 
d="M1297 520c0 -162.667 -44.332 -291.002 -132.999 -385.002c-98.667 -104.667 -243.334 -157 -434.001 -157c-168.667 0 -304.334 36.333 -407.001 109s-175.334 182.334 -218.001 329.001l331 51c0 -58 27.333 -107.333 82 -148c52 -38.667 111.667 -58 179 -58
c62.667 0 115.334 18 158.001 54c48.667 41.333 76.667 102 84 182c0.666992 4 1 10.333 1 19c0 57.333 -21.5 107.833 -64.5 151.5s-94.833 65.5 -155.5 65.5c-53.333 0 -101.166 -10.167 -143.499 -30.5s-74.833 -49.166 -97.5 -86.499l-292 52l61 866h964l-41 -313h-668
l-24 -335c51.333 47.333 103.333 80.5 156 99.5s115.334 28.5 188.001 28.5c131.333 0 243.166 -48.5 335.499 -145.5s138.5 -213.167 138.5 -348.5z" />
    <glyph glyph-name="six" unicode="6" horiz-adv-x="1390" 
d="M1289 494c0 -139.333 -55.167 -259.834 -165.5 -361.501s-239.5 -152.5 -387.5 -152.5c-202 0 -356.333 63.333 -463 190c-112.667 133.333 -169 332.666 -169 597.999c0 137.333 22.333 263.333 67 378c48.667 125.333 117.667 223 207 293c99.333 78 218 117 356 117
c115.333 0 209.333 -17.667 282 -53c64.667 -31.333 118.334 -79.333 161.001 -144c30.667 -46.667 62.667 -116 96 -208l-309 -85c0 54 -18 103 -54 147s-77.333 70.667 -124 80c-20 4 -39.333 6 -58 6c-84.667 0 -151.334 -40.667 -200.001 -122
c-42.667 -71.333 -64 -155.666 -64 -252.999v-128c52.667 64.667 98.667 107.667 138 129c49.333 26.667 118.333 40 207 40c142 0 258 -45.667 348 -137c88 -89.333 132 -200.666 132 -333.999zM931 483.999c0 66.667 -18.668 121.999 -56.001 165.999
c-40.667 47.333 -96 71 -166 71c-64.667 0 -119.5 -23.5 -164.5 -70.5s-67.5 -103.5 -67.5 -169.5c0 -68 20 -124.667 60 -170c42.667 -48.667 99.334 -73 170.001 -73c68.667 0 123.167 22.833 163.5 68.5s60.5 104.834 60.5 177.501z" />
    <glyph glyph-name="seven" unicode="7" horiz-adv-x="1278" 
d="M1178 1254c-48.667 -55.333 -92.001 -111.334 -130.001 -168.001c-32 -48 -64.333 -103 -97 -165c-24.667 -47.333 -53.667 -106.666 -87 -177.999c-30 -64.667 -55 -139 -75 -223c-16.667 -68.667 -28.667 -136.667 -36 -204s-11 -125.333 -11 -174l1 -145h-411
c0 97.333 8 186 24 266c12.667 64 37.334 150 74.001 258c50.667 148.667 106 272.5 166 371.5s144.333 205.5 253 319.5h-763l25 320l1067 2v-280z" />
    <glyph glyph-name="eight" unicode="8" horiz-adv-x="1415" 
d="M1307 464c0 -155.333 -51.001 -273.999 -153.001 -355.999c-105.333 -84.667 -261.666 -127 -468.999 -127c-160.667 0 -294.667 33 -402 99c-126.667 78 -190 189 -190 333c0 89.333 25 163 75 221c43.333 50.667 108 92 194 124
c-65.333 38.667 -117.833 87.334 -157.5 146.001s-59.5 119 -59.5 181c0 12 0.333008 21 1 27c16 140 73.333 249.667 172 329s223.667 119 375 119c89.333 0 172 -11.333 248 -34c92.667 -28 164.667 -69.333 216 -124c60.667 -65.333 91 -148 91 -248
c0 -80.667 -20.333 -147.334 -61 -200.001c-34.667 -44.667 -89 -84.667 -163 -120c92.667 -37.333 160.667 -81 204 -131c52.667 -60.667 79 -140.334 79 -239.001zM828.999 951.001c32.667 13.333 59.332 37.001 79.999 71.001s31 70.333 31 109
c0 55.333 -19.333 100.333 -58 135c-45.333 40.667 -111.666 61 -198.999 61c-50 0 -90 -9.66699 -120 -29c-36 -23.333 -61.333 -65 -76 -125c-2 -10 -3 -19.333 -3 -28c0 -52 37.667 -98.333 113 -139c35.333 -18.667 77.333 -35.334 126 -50.001l66 -22zM966.997 395.002
c-4.66699 50.667 -28.333 93.998 -71 129.998c-31.333 26.667 -72.333 48.667 -123 66c-28.667 8 -57 16.333 -85 25l-77 28l-85 -35c-13.333 -5.33301 -28.333 -16.666 -45 -33.999c-42 -42.667 -63 -91 -63 -145c0 -13.333 0.666992 -23.666 2 -30.999
c8.66699 -57.333 41.334 -102 98.001 -134c50 -28 111 -42 183 -42c71.333 0 132.666 14 183.999 42c55.333 30 83 69.333 83 118c-0.666992 5.33301 -1 9.33301 -1 12z" />
    <glyph glyph-name="nine" unicode="9" horiz-adv-x="1363" 
d="M1270 791c0 -130.667 -19.6709 -253.332 -59.0039 -367.999c-45.333 -132.667 -111.666 -236.667 -198.999 -312c-101.333 -87.333 -225.666 -131 -372.999 -131c-136.667 0 -249.334 35 -338.001 105c-70.667 56 -119 127.333 -145 214l-16 56l313 56
c20.667 -54.667 43.334 -92.667 68.001 -114c33.333 -28.667 82.333 -43 147 -43c78.667 0 140 35 184 105c38 60.667 57 135.334 57 224.001l5 153c-48.667 -54 -100.167 -93.167 -154.5 -117.5s-117.5 -36.5 -189.5 -36.5c-132 0 -243.667 43.667 -335 131
c-93.333 89.333 -140 200.666 -140 333.999c0 180 56.667 313.333 170 400c96.667 74 227.334 111 392.001 111c148.667 0 271.334 -38 368.001 -114c84.667 -66.667 148 -161.334 190 -284.001c36.667 -108 55 -231 55 -369zM895.996 1070
c0 65.333 -22 120.669 -66 166.002s-99.667 68 -167 68c-66.667 0 -120.5 -21.833 -161.5 -65.5s-61.5 -99.834 -61.5 -168.501c0 -67.333 24 -122.333 72 -165c45.333 -40 101 -60 167 -60c60 0 111.167 22.167 153.5 66.5s63.5 97.166 63.5 158.499z" />
    <glyph glyph-name="colon" unicode=":" horiz-adv-x="540" 
d="M451 797h-346v347h346v-347zM445 8h-346v347h346v-347z" />
    <glyph glyph-name="semicolon" unicode=";" horiz-adv-x="533" 
d="M448 785h-346v348h346v-348zM444 31l-216 -385h-132l172 356h-163v348h339v-319z" />
    <glyph glyph-name="less" unicode="&#x3c;" horiz-adv-x="1272" 
d="M1181 804l-695 -247l690 -253v-289l-1082 407v271l1087 403v-292z" />
    <glyph glyph-name="equal" unicode="=" horiz-adv-x="1351" 
d="M1255 759h-1158v278h1158v-278zM1261 185h-1158v278h1158v-278z" />
    <glyph glyph-name="greater" unicode="&#x3e;" horiz-adv-x="1277" 
d="M1187 411l-1082 -407v290l689 253l-694 246v292l1087 -403v-271z" />
    <glyph glyph-name="question" unicode="?" horiz-adv-x="1246" 
d="M1150 1106c0 -104 -33.998 -197.001 -101.998 -279.001c-28.667 -34.667 -92.334 -91 -191.001 -169c-68.667 -54.667 -103 -99.667 -103 -135v-92h-289v64c0 99.333 9 170.666 27 213.999c3.33301 8.66699 25.333 40.334 66 95.001c13.333 18 42.333 42.667 87 74
c49.333 34.667 82.666 62 99.999 82c32 36.667 48 77 48 121c0 49.333 -10 89.833 -30 121.5s-52 54.834 -96 69.501c-20 6.66699 -39.667 10 -59 10c-58.667 0 -110 -30.667 -154 -92c-34 -47.333 -52.667 -88.333 -56 -123l-6 -62l-305 37
c0 143.333 52.333 263.333 157 360s234.667 145 390 145c148.667 0 267.667 -32 357 -96c106 -76 159 -191 159 -345zM787.002 -1.00098h-347l-1 348h348v-348z" />
    <glyph glyph-name="at" unicode="@" horiz-adv-x="1493" 
d="M1440 835c0 -142.667 -45.335 -269.665 -136.002 -380.998c-92.667 -114 -200.667 -171 -324 -171c-52.667 0 -92 26 -118 78c-8 17.333 -15.667 43.666 -23 78.999l-58 -65c-25.333 -28.667 -52.666 -49.834 -81.999 -63.501s-63.333 -20.5 -102 -20.5
c-75.333 0 -137.166 30 -185.499 90s-72.5 130 -72.5 210c0 118.667 50 222.334 150 311.001c90 80 182.333 120 277 120c36.667 0 68.167 -7.16699 94.5 -21.5s44.5 -36.5 54.5 -66.5l19 -54l39 119l164 4l-149 -551c-4.66699 -17.333 -7 -34.666 -7 -51.999
c0 -18.667 3 -33.834 9 -45.501s15.333 -17.5 28 -17.5c78.667 0 151.334 51.667 218.001 155s100 212.333 100 327c0 148 -57.667 266 -173 354c-105.333 80.667 -234 121 -386 121c-163.333 0 -303 -58 -419 -174s-174 -255.667 -174 -419
c0 -170.667 59.167 -316.834 177.5 -438.501s262.166 -182.5 431.499 -182.5c123.333 0 229 23.667 317 71c63.333 34 115 78.333 155 133l41 72h126l-56 -96c-54 -74 -120.667 -134 -200 -180c-111.333 -64.667 -240.333 -97 -387 -97c-196 0 -363 69.333 -501 208
s-207 306 -207 502c0 192 68 356.667 204 494s300 206 492 206c176 0 328.667 -51 458 -153c136.667 -108 205 -243 205 -405zM897.998 804.002c0 50 -9.66797 90.5 -29.001 121.5s-47.333 46.5 -84 46.5c-62.667 0 -124 -52.667 -184 -158s-90 -208.333 -90 -309
c0 -43.333 9.66699 -79.333 29 -108c22.667 -34 56.334 -51 101.001 -51c63.333 0 123.333 58 180 174c51.333 105.333 77 200 77 284z" />
    <glyph glyph-name="A" unicode="A" horiz-adv-x="1488" 
d="M1448 0h-393l-90 308h-493l-97 -308h-317l497 1538h417zM880 600l-157 527l-161 -527h318z" />
    <glyph glyph-name="B" unicode="B" horiz-adv-x="1441" 
d="M1391 421c0 -126.667 -47.666 -229.331 -142.999 -307.998c-92 -76 -207.333 -114 -346 -114l-772 1v1538h834c98.667 0 187.667 -40 267 -120c82 -82.667 123 -179 123 -289c0 -88 -24.667 -160.333 -74 -217c-44 -50.667 -108 -89 -192 -115
c93.333 -24.667 167.166 -69.834 221.499 -135.501s81.5 -145.834 81.5 -240.501zM986.001 1099c0 52.667 -15 92 -45 118c-32.667 28.667 -85 43 -157 43h-293v-333h311c57.333 0 102.333 16 135 48s49 73.333 49 124zM1014 474.003c0 46 -14.332 85.333 -42.999 118
c-34.667 39.333 -82.334 59 -143.001 59h-339v-365h323c64 0 113.667 16.333 149 49s53 79 53 139z" />
    <glyph glyph-name="C" unicode="C" horiz-adv-x="1499" 
d="M1409 539c-26.667 -172 -84.333 -304.334 -173 -397.001c-102.667 -107.333 -247 -161 -433 -161c-204 0 -372.333 72 -505 216s-199 331 -199 561c0 217.333 61.667 403 185 557c129.333 161.333 293 242 491 242c206 0 362.333 -57.667 469 -173
c93.333 -100 148.333 -242.333 165 -427l-370 -19c0 90.667 -18.667 165.334 -56 224.001c-44 69.333 -108.667 104 -194 104c-107.333 0 -182.666 -44.333 -225.999 -133c-38 -78 -57 -205 -57 -381c0 -142 21 -254.333 63 -337c48.667 -96.667 123 -145 223 -145
c77.333 0 141.166 28.167 191.499 84.5s75.5 123.5 75.5 201.5z" />
    <glyph glyph-name="D" unicode="D" horiz-adv-x="1448" 
d="M1411 757c0 -219.333 -66.834 -400.333 -200.501 -543s-306.167 -214 -517.5 -214h-544v1538h516c240.667 0 427.334 -74.667 560.001 -224c124 -140 186 -325.667 186 -557zM1047 771c0 125.333 -30.333 231.001 -91 317.001c-66.667 94.667 -156 142 -268 142h-171
v-922h174c110 0 198.333 48 265 144c60.667 87.333 91 193.666 91 318.999z" />
    <glyph glyph-name="E" unicode="E" horiz-adv-x="1299" 
d="M1255 0h-1095v1538h1095v-308h-735v-306h574v-296h-580v-320h741v-308z" />
    <glyph glyph-name="F" unicode="F" horiz-adv-x="1277" 
d="M1226 1230h-738l-1 -306l588 -1v-295h-588v-629l-356 1v1538l1095 -1v-307z" />
    <glyph glyph-name="G" unicode="G" horiz-adv-x="1456" 
d="M1370 1039l-349.003 -47.0029c-8.66699 78.667 -28 140.334 -58 185.001c-37.333 54.667 -92.666 87.667 -165.999 99c-6.66699 1.33301 -14.167 2.33301 -22.5 3s-16.166 1 -23.499 1c-98 0 -172 -54.667 -222 -164c-41.333 -90 -62 -202.667 -62 -338
c0 -20.667 0.333008 -36.667 1 -48s2 -29 4 -53c12.667 -135.333 40.667 -234.666 84 -297.999c47.333 -69.333 118 -104 212 -104c66.667 0 124.334 18.333 173.001 55c56 42.667 84 101 84 175v38h-296v286h639l-2 -829h-166l-53 173
c-61.333 -67.333 -121 -116.333 -179 -147c-65.333 -34.667 -139 -52 -221 -52c-150.667 0 -277.667 38.333 -381 115c-92 68.667 -161.667 165 -209 289c-42.667 112 -64 238 -64 378c0 142.667 24 273.667 72 393c51.333 128.667 125 229.334 221 302.001
c105.333 80 230.333 120 375 120c181.333 0 323.333 -50 426 -150c90.667 -88 151.667 -215.333 183 -382z" />
    <glyph glyph-name="H" unicode="H" horiz-adv-x="1396" 
d="M1310 0h-367v628h-473v-628h-362l1 1538h365v-614h471v614h365v-1538z" />
    <glyph glyph-name="I" unicode="I" horiz-adv-x="615" 
d="M496 0h-363v1538h363v-1538z" />
    <glyph glyph-name="J" unicode="J" horiz-adv-x="929" 
d="M793 429c0 -166 -48.666 -287.333 -145.999 -364c-78 -61.333 -182.333 -92 -313 -92c-31.333 0 -82 3.66699 -152 11s-111 13.333 -123 18v296l59 -7c23.333 -3.33301 45.666 -6 66.999 -8s40 -3 56 -3h20c6 1.33301 10 2 12 2c64 6.66699 105.667 28.667 125 66
s29 111.333 29 222v968h364z" />
    <glyph glyph-name="K" unicode="K" horiz-adv-x="1466" 
d="M1422 0h-409l-288 653l-215 -295v-358h-348v1538h353v-715l471 715h350l-368 -554z" />
    <glyph glyph-name="L" unicode="L" horiz-adv-x="1185" 
d="M1132 0h-977v1538h362v-1230h615v-308z" />
    <glyph glyph-name="M" unicode="M" horiz-adv-x="1829" 
d="M1749 0h-353l-3 1233l-378 -1233h-238l-364 1225l2 -1225h-298l3 1538h544l258 -922l276 922h551v-1538z" />
    <glyph glyph-name="N" unicode="N" horiz-adv-x="1342" 
d="M1249 0h-304l-583 1026v-1026h-285v1538h387l507 -899v899h278v-1538z" />
    <glyph glyph-name="O" unicode="O" horiz-adv-x="1505" 
d="M1416 769c0 -140 -21.999 -267.001 -65.999 -381.001c-48.667 -126.667 -118.667 -225 -210 -295c-101.333 -78 -224.333 -117 -369 -117c-213.333 0 -381 83 -503 249c-109.333 148.667 -164 333.334 -164 554.001c0 210.667 60.667 390 182 538
c129.333 158 296.666 237 501.999 237c141.333 0 261.333 -38.667 360 -116c89.333 -70 157.333 -167.333 204 -292c42.667 -113.333 64 -239 64 -377zM1040 781.999c0 85.333 -5.99902 158.002 -17.999 218.002c-16 79.333 -42 140 -78 182
c-43.333 50.667 -101.666 76 -174.999 76c-74.667 0 -135.334 -28.333 -182.001 -85c-38 -46.667 -66 -111.667 -84 -195c-14 -66 -21 -138.667 -21 -218s7.66699 -152 23 -218c19.333 -82.667 48.333 -147 87 -193c47.333 -56 107.333 -84 180 -84
c73.333 0 131.333 27.667 174 83c35.333 45.333 60.666 111.666 75.999 198.999c12 67.333 18 145.666 18 234.999z" />
    <glyph glyph-name="P" unicode="P" horiz-adv-x="1368" 
d="M1325 1050c0 -132 -47 -245.333 -141 -340s-207 -142 -339 -142h-353v-568h-356l2 1538h706c132.667 0 246 -48 340 -144s141 -210.667 141 -344zM963 1047c0 61.333 -19.333 110.333 -58 147c-40.667 38.667 -97 58 -169 58h-241v-404h269c54 0 100.667 19.667 140 59
s59 86 59 140z" />
    <glyph glyph-name="Q" unicode="Q" horiz-adv-x="1514" 
d="M1416 773c0 -154.667 -22.333 -286.001 -67 -394.001c-48 -115.333 -127.667 -220 -239 -314c-1.33301 -12 -2 -20 -2 -24c0 -13.333 4.66699 -28.333 14 -45c11.333 -16.667 25.666 -28.5 42.999 -35.5s37 -10.5 59 -10.5c4.66699 0 9.83398 0.333008 15.501 1
s10.167 1 13.5 1l122 11v-273c-22 -5.33301 -43.5 -9.33301 -64.5 -12s-42.833 -4 -65.5 -4c-62 0 -107 3 -135 9c-42 9.33301 -80.167 28.5 -114.5 57.5s-62.166 73.5 -83.499 133.5c-16 45.333 -24 81 -24 107l-57 -3c-132.667 0 -246.667 20 -342 60
c-116.667 49.333 -206.334 128.333 -269.001 237c-72.667 126.667 -109 294 -109 502c0 210.667 60.333 389.667 181 537c129.333 158 296.666 237 501.999 237c140.667 0 260.334 -38.667 359.001 -116c87.333 -68.667 154 -165 200 -289
c42 -113.333 63 -237.666 63 -372.999zM1048 778.999c0 84.667 -6 157 -18 217c-16 78.667 -42 139 -78 181c-43.333 50.667 -101.666 76 -174.999 76c-79.333 0 -142 -28 -188 -84c-37.333 -45.333 -64.333 -110.666 -81 -195.999c-12 -62.667 -18 -134.667 -18 -216
c0 -79.333 7.66699 -152.333 23 -219c19.333 -82.667 48.333 -147 87 -193c46.667 -55.333 106.667 -83 180 -83c72.667 0 130.667 28 174 84c35.333 46 60.666 112 75.999 198c12 67.333 18 145.666 18 234.999z" />
    <glyph glyph-name="R" unicode="R" horiz-adv-x="1451" 
d="M1362 0l-408.001 0.000976562l-232 628h-260v-628h-361v1538l731 -1c164.667 0 292.334 -43.333 383.001 -130c84.667 -80.667 127 -187.334 127 -320.001c0 -94 -22.5 -175.667 -67.5 -245s-110.5 -124 -196.5 -164zM965.999 1079c0 62 -21.5 110.5 -64.5 145.5
s-103.5 52.5 -181.5 52.5h-258v-401h277c67.333 0 122 18.333 164 55s63 86 63 148z" />
    <glyph glyph-name="S" unicode="S" horiz-adv-x="1476" 
d="M1372 496c0 -153.333 -63.333 -279.334 -190 -378.001c-122.667 -95.333 -275.334 -143 -458.001 -143c-169.333 0 -306 37.667 -410 113c-93.333 67.333 -160.666 164.666 -201.999 291.999l-9 25l335 83l12 -39c11.333 -37.333 36 -73 74 -107
c42.667 -38 88.667 -60.333 138 -67c32 -4 62.333 -6 91 -6c76.667 0 137 14 181 42s66 64.333 66 109c0 32 -12.333 65.333 -37 100c-19.333 26.667 -59 48.667 -119 66c-28 8 -83.5 19.5 -166.5 34.5s-141.167 29.167 -174.5 42.5c-87.333 36 -152 71.667 -194 107
c-56 47.333 -92.667 107.333 -110 180c-12 50 -18 97 -18 141c0 146 55.333 264 166 354c105.333 86 236.333 129 393 129c154.667 0 277 -25.667 367 -77s160 -137 210 -257l11 -26l-311 -105l-10 29c-16.667 48.667 -51.334 87.334 -104.001 116.001
c-48 26 -101 39 -159 39c-50 0 -94 -9.66699 -132 -29s-62.667 -47.333 -74 -84c-4 -14 -6 -27.333 -6 -40c0 -43.333 27 -79 81 -107c39.333 -20.667 92.333 -37 159 -49l110 -16c96.667 -19.333 175.334 -43.666 236.001 -72.999c80 -38 140.667 -86.333 182 -145
c48 -68 72 -152.667 72 -254z" />
    <glyph glyph-name="T" unicode="T" horiz-adv-x="1307" 
d="M1206 1230h-382v-1230h-361v1230h-379v308h1122v-308z" />
    <glyph glyph-name="U" unicode="U" horiz-adv-x="1403" 
d="M1318 585c0 -124.667 -11.667 -223.001 -35 -295.001c-32 -98 -88.333 -171.667 -169 -221c-94 -57.333 -226.333 -86 -397 -86c-227.333 0 -391 54.667 -491 164c-86 94 -129 233.333 -129 418v973h390l-1 -848c0 -177.333 15.667 -291.166 47 -341.499
s100.333 -75.5 207 -75.5c116 0 189.5 24 220.5 72s46.5 159.333 46.5 334l1 859h310v-953z" />
    <glyph glyph-name="V" unicode="V" horiz-adv-x="1424" 
d="M1386 1538l-470 -1538h-396l-468 1538h391l313 -1085l317 1085h313z" />
    <glyph glyph-name="W" unicode="W" horiz-adv-x="2087" 
d="M2034 1538l-374 -1538h-362l-252 1014l-247 -1014h-354l-396 1538h368l238 -1037l246 1037h343l263 -1034l226 1034h301z" />
    <glyph glyph-name="X" unicode="X" horiz-adv-x="1460" 
d="M1415 0h-414l-306 549l-309 -549h-349l477 815l-416 723h419l247 -466l256 466h341l-416 -720z" />
    <glyph glyph-name="Y" unicode="Y" horiz-adv-x="1414" 
d="M1349 1538l-484 -889v-649h-362v642l-466 896h412l286 -587l291 587h323z" />
    <glyph glyph-name="Z" unicode="Z" horiz-adv-x="1430" 
d="M1337 0h-1240v275l772 955h-714v308h1167v-280l-776 -950h791v-308z" />
    <glyph glyph-name="bracketleft" unicode="[" horiz-adv-x="666" 
d="M571 1540h-226v-1634l224 -1v-138h-481l3 1916h480v-143z" />
    <glyph glyph-name="backslash" unicode="\" horiz-adv-x="912" 
d="M817 -3h-225l-505 1542h230z" />
    <glyph glyph-name="bracketright" unicode="]" horiz-adv-x="685" 
d="M589 -238h-483v138h220v1635h-222v143h485v-1916z" />
    <glyph glyph-name="asciicircum" unicode="^" horiz-adv-x="1030" 
d="M949 1181h-241l-180 122l-179 -120h-238l414 334z" />
    <glyph glyph-name="underscore" unicode="_" horiz-adv-x="1326" 
d="M1336 -247h-1336v126h1336v-126z" />
    <glyph glyph-name="grave" unicode="`" horiz-adv-x="748" 
d="M648 1345l-54 -132l-503 184l67 187z" />
    <glyph glyph-name="a" unicode="a" horiz-adv-x="1246" 
d="M1150 0l-326.999 -0.000976562l-14 91l-3.5 32.5c-1 9.66699 -1.5 22.834 -1.5 39.501c-11.333 -18.667 -28 -39 -50 -61c-36 -35.333 -75 -63.333 -117 -84c-58 -28 -120.333 -42 -187 -42c-102 0 -185.667 26 -251 78c-73.333 58.667 -110 142 -110 250
c0 91.333 28.667 166.666 86 225.999c49.333 51.333 119.666 91.333 210.999 120c72.667 22.667 160 39 262 49l142 14v120c0 30 -16.333 55.333 -49 76s-68.334 31 -107.001 31c-58 0 -103.833 -14.333 -137.5 -43s-53.5 -68 -59.5 -118l-314 27l3 20
c18.667 114 85.667 200.667 201 260c96.667 50 210.334 75 341.001 75c111.333 0 203.333 -16 276 -48c60 -26.667 105.333 -62.667 136 -108c24 -35.333 37.667 -72.666 41 -111.999l9 -95v-669c0 -16 0.5 -28.833 1.5 -38.5s3.5 -24.167 7.5 -43.5zM794.001 540.999
l-103 -9c-60.667 -4.66699 -116 -24.334 -166 -59.001c-56.667 -38.667 -85 -84 -85 -136c0 -33.333 13 -68.333 39 -105c10.667 -15.333 24.5 -26.666 41.5 -33.999s35.5 -11 55.5 -11c52.667 0 100.667 20.333 144 61c48 44.667 72 99.667 72 165z" />
    <glyph glyph-name="b" unicode="b" horiz-adv-x="1245" 
d="M1176 571c0 -192 -39.667 -339.333 -119 -442c-76.667 -99.333 -184.334 -149 -323.001 -149c-84 0 -152.667 13.833 -206 41.5s-104.666 73.5 -153.999 137.5l-89 -159h-162v1560h338v-532l10 22c18.667 38 47.334 68.333 86.001 91
c47.333 27.333 107.666 41 180.999 41c106 0 193.667 -31 263 -93c60.667 -54 106 -130.667 136 -230c26 -85.333 39 -181.333 39 -288zM820 568c0 123.333 -11.001 213.666 -33.001 270.999c-26 68 -70.333 102 -133 102c-11.333 0 -23 -1 -35 -3
c-45.333 -8 -84.166 -32.833 -116.499 -74.5s-48.5 -84.167 -48.5 -127.5v-348c0 -43.333 14.333 -82.666 43 -117.999c32.667 -40.667 73.334 -61 122.001 -61c5.33301 0 11.5 0.5 18.5 1.5s12.5 1.83301 16.5 2.5c69.333 14 115.666 51.667 138.999 113
c18 47.333 27 128 27 242z" />
    <glyph glyph-name="c" unicode="c" horiz-adv-x="1253" 
d="M1165 725l-319.999 -13c-6.66699 70 -17 116.333 -31 139c-24.667 40.667 -73.334 61 -146.001 61c-70 0 -122 -36 -156 -108c-27.333 -58 -41 -131.333 -41 -220c0 -10 0.333008 -21.167 1 -33.5s1.66699 -26.166 3 -41.499c7.33301 -81.333 19.333 -138 36 -170
c27.333 -53.333 76.333 -80 147 -80c52.667 0 96.334 17.333 131.001 52s52 81.667 52 141l318 -20c-24.667 -138.667 -74.667 -244.334 -150 -317.001c-86 -83.333 -206 -125 -360 -125c-158 0 -288.333 47.667 -391 143c-109.333 101.333 -164 236 -164 404
c0 170.667 49 316 147 436c105.333 128.667 241.666 193 408.999 193c118 0 215 -22 291 -66c65.333 -38 117 -92.667 155 -164c30 -56.667 53 -127 69 -211z" />
    <glyph glyph-name="d" unicode="d" horiz-adv-x="1259" 
d="M1122 0h-320.001v177c-39.333 -68 -80.666 -118 -123.999 -150c-50.667 -38 -110.667 -57 -180 -57h-25c-7.33301 1.33301 -12.666 2 -15.999 2c-135.333 14 -234 73.667 -296 179c-58 98 -87 239.667 -87 425c0 94.667 13.333 184.667 40 270
c31.333 100 75.666 178 132.999 234c67.333 65.333 150 98 248 98c60.667 0 116 -11.333 166 -34c44 -20 80.667 -47 110 -81l19 -28v525h331zM786.999 411v358c0 34.667 -14.667 71 -44 109c-34 43.333 -71.667 65 -113 65c-68.667 0 -121 -41 -157 -123
c-29.333 -67.333 -44 -149 -44 -245c0 -98.667 11.667 -177.667 35 -237c31.333 -80 82.333 -120 153 -120c48 0 88.333 19.5 121 58.5s49 83.833 49 134.5z" />
    <glyph glyph-name="e" unicode="e" horiz-adv-x="1271" 
d="M1187 520h-728v-98c0 -54.667 22.167 -102.5 66.5 -143.5s95.5 -61.5 153.5 -61.5c52 0 98.667 19 140 57c34.667 32 52 61 52 87v38l313 -20l-9 -26c-37.333 -113.333 -97 -201.666 -179 -264.999c-92 -71.333 -207 -107 -345 -107c-158.667 0 -291 56.667 -397 170
c-102.667 110 -154 243.333 -154 400c0 168 45 311.333 135 430c102 134 239.333 201 412 201c156.667 0 285.667 -54.333 387 -163s152 -246.334 152 -413.001zM848 720c2.66699 12.667 4 27 4 43c0 53.333 -16.333 98.666 -49 135.999c-35.333 40 -81.333 60 -138 60
c-54.667 0 -103.667 -20.667 -147 -62s-65 -89 -65 -143c0 -11.333 1 -22.666 3 -33.999h392z" />
    <glyph glyph-name="f" unicode="f" horiz-adv-x="847" 
d="M788 1306l-110.001 0.00195312c-12 0 -25.833 -0.333008 -41.5 -1s-31.167 -7.33398 -46.5 -20.001c-12.667 -10.667 -21.5 -23.334 -26.5 -38.001s-7.5 -32.334 -7.5 -53.001v-70h201v-260h-198v-864h-330v865h-132v259h130l2 142c0 20.667 6 49.334 18 86.001
c15.333 46.667 35.333 84 60 112c40.667 46.667 96.334 77 167.001 91c40 8 103.333 12 190 12l124 -7v-254z" />
    <glyph glyph-name="g" unicode="g" horiz-adv-x="1442" 
d="M1330 1100c-12.667 4.66699 -24.8311 7.82812 -36.498 9.49512s-25.5 2.5 -41.5 2.5h-13c-38.667 0 -69.167 -8.33301 -91.5 -25s-33.5 -35.667 -33.5 -57l-1 -13c33.333 -38.667 56 -73.667 68 -105s18 -69.666 18 -114.999c0 -109.333 -50 -196.666 -150 -261.999
c-90.667 -59.333 -200.667 -89 -330 -89c-18 0 -46 2.33301 -84 7s-65.667 7 -83 7c-28 0 -50.833 -5.16699 -68.5 -15.5s-28.834 -28.5 -33.501 -54.5c-1.33301 -9.33301 -2 -16 -2 -20c0 -35.333 19.667 -61 59 -77c34 -14 84.667 -21 152 -21h62.5
c21 0 42.5 0.333008 64.5 1c108.667 0 192.667 -5 252 -15c88.667 -14.667 155.334 -42.334 200.001 -83.001c54.667 -49.333 82 -119 82 -209c0 -91.333 -34.667 -166.666 -104 -225.999c-60 -51.333 -144 -89.333 -252 -114c-90 -20.667 -191 -31 -303 -31
c-112.667 0 -200 4 -262 12c-96.667 12.667 -170.334 36 -221.001 70c-61.333 41.333 -92 100.333 -92 177c0 50.667 18.333 94.334 55 131.001c30.667 30.667 74.667 57.334 132 80.001c-40.667 18 -73.334 44.833 -98.001 80.5s-37 76.834 -37 123.501
c0 41.333 12.667 80.833 38 118.5s59.333 68.167 102 91.5l75 41c-62 31.333 -108.667 68.666 -140 111.999c-34.667 48 -52 105 -52 171c0 114.667 55.333 203.334 166 266.001c96 54.667 216 82 360 82c52.667 0 108.334 -5 167.001 -15s101 -20.333 127 -31
c0 40 9.33301 78 28 114c22 42 52.333 71 91 87c10 4 31.667 8 65 12s64.666 6 93.999 6c34 0 57.667 -3 71 -9v-215zM872.003 800.994c0 52.667 -14.666 93 -43.999 121c-32 30.667 -82.333 46 -151 46c-58 0 -102.667 -15.667 -134 -47s-47 -71.666 -47 -120.999
c0 -50 15.5 -90.833 46.5 -122.5s75.833 -47.5 134.5 -47.5c61.333 0 109.166 15.667 143.499 47s51.5 72.666 51.5 123.999zM1012 -101.006c-6 37.333 -27.333 63 -64 77c-28 10.667 -68.333 16 -121 16c-11.333 0 -29 -0.333008 -53 -1s-41.667 -1 -53 -1
c-18 0 -41.333 1 -70 3c-67.333 4.66699 -110 7 -128 7c-46.667 0 -81 -4.66699 -103 -14c-28.667 -12 -43 -33.333 -43 -64c0 -6.66699 0.333008 -11.667 1 -15c6 -44.667 33.333 -75 82 -91c33.333 -10.667 84.666 -16 153.999 -16h60
c94.667 0 167.334 4.33301 218.001 13c80.667 14 121 39.333 121 76c0 4.66699 -0.333008 8 -1 10z" />
    <glyph glyph-name="h" unicode="h" horiz-adv-x="1174" 
d="M1092 0l-334 0.00195312l-1 746c0 40.667 -13.333 76.167 -40 106.5s-60.667 49.166 -102 56.499c-9.33301 1.33301 -16.333 2 -21 2c-48 0 -87.333 -26.667 -118 -80c-27.333 -48 -41 -102.667 -41 -164l5 -667h-336v1560h331v-561c66.667 121.333 168 182 304 182
c103.333 0 189 -44 257 -132c64 -82.667 96 -180.334 96 -293.001v-756z" />
    <glyph glyph-name="i" unicode="i" horiz-adv-x="716" 
d="M531 1251h-336v309h336v-309zM532 0h-337v1155h337v-1155z" />
    <glyph glyph-name="j" unicode="j" horiz-adv-x="718" 
d="M529 1252h-332v308h332v-308zM529 37l-0.00390625 -38c0 -12.667 0.333008 -25.334 1 -38.001c0 -82.667 -8.33301 -143.667 -25 -183c-14 -33.333 -36.667 -63 -68 -89c-35.333 -30 -73.166 -51.667 -113.499 -65s-84.166 -20 -131.499 -20
c-21.333 0 -37.333 0.5 -48 1.5s-33 3.5 -67 7.5l-92 12v266c19.333 -8.66699 40.333 -13 63 -13c30 0 57.833 6.66699 83.5 20s42.834 30.333 51.501 51c6.66699 16.667 10.834 34.834 12.501 54.501s2.5 32.5 2.5 38.5v34l-1 1079h332v-1118z" />
    <glyph glyph-name="k" unicode="k" horiz-adv-x="1344" 
d="M1304 0h-377l-240 516l-181 -219v-297h-338l-1 1560h341v-923l418 518h333l-326 -398z" />
    <glyph glyph-name="l" unicode="l" horiz-adv-x="664" 
d="M489 0h-325v1560h325v-1560z" />
    <glyph glyph-name="m" unicode="m" horiz-adv-x="1802" 
d="M1699 0h-331.998v722c0 52.667 -7.66699 91.334 -23 116.001c-21.333 34.667 -61 52 -119 52c-52 0 -93.667 -18.667 -125 -56c-28.667 -34.667 -43 -77.334 -43 -128.001l1 -706h-330v748c0 40.667 -12 74 -36 100c-26 28 -61.667 42 -107 42
c-50.667 0 -90.834 -15.167 -120.501 -45.5s-44.5 -68.833 -44.5 -115.5v-729l-328 1v1154h310l1 -189c63.333 128.667 168.666 193 315.999 193c142.667 0 245.667 -64.333 309 -193c34 64 78.333 111.5 133 142.5s119.667 46.5 195 46.5c102.667 0 182 -23.333 238 -70
c69.333 -57.333 104 -150.333 104 -279z" />
    <glyph glyph-name="n" unicode="n" horiz-adv-x="1181" 
d="M1094 0l-331.001 0.000976562l1 729c0 49.333 -10.667 88.666 -32 117.999c-26 35.333 -65.333 53 -118 53c-58 0 -103 -30 -135 -90c-26.667 -50.667 -40 -112.334 -40 -185.001v-625h-330l1 1155h314v-212c30 70.667 71.833 124 125.5 160s120.834 54 201.501 54
c96.667 0 171.667 -20.667 225 -62c46 -35.333 78.333 -87.666 97 -156.999c14 -52 21 -120 21 -204v-734z" />
    <glyph glyph-name="o" unicode="o" horiz-adv-x="1277" 
d="M1201 588c0 -182 -51.001 -330.668 -153.001 -446.001s-232.667 -173 -392 -173c-182 0 -322 62 -420 186c-86.667 110 -130 252 -130 426c0 170 43.667 309.333 131 418c98 122 236.333 183 415 183s317.334 -59.667 416.001 -179
c88.667 -107.333 133 -245.666 133 -414.999zM844.999 548.999c0 77.333 -2.99902 138.668 -8.99902 184.001c-9.33301 70.667 -26.333 124.334 -51 161.001c-30.667 45.333 -74.334 68 -131.001 68c-78 0 -132 -34.667 -162 -104c-22 -50.667 -33 -128.334 -33 -233.001
c0 -81.333 3 -145 9 -191c9.33301 -73.333 26.666 -129 51.999 -167c30.667 -46.667 74.334 -70 131.001 -70c80.667 0 135.667 39 165 117c19.333 51.333 29 129.666 29 234.999z" />
    <glyph glyph-name="p" unicode="p" horiz-adv-x="1213" 
d="M1124 577c0 -104.667 -11.666 -197.667 -34.999 -279c-28 -96.667 -70.333 -171 -127 -223c-66.667 -61.333 -151.667 -92 -255 -92c-70 0 -126.333 12.333 -169 37c-30 17.333 -58 44.666 -84 81.999l-19 27v-507h-329l-1 1533h308v-182
c42.667 66.667 82 112.334 118 137.001c47.333 32.667 110.666 49 189.999 49c268.667 0 403 -194 403 -582zM785.001 581c0 92.667 -9.66602 168 -28.999 226c-26.667 80 -69.334 120 -128.001 120c-8 0 -14.333 -0.333008 -19 -1c-47.333 -6 -88.333 -24.833 -123 -56.5
s-52 -68.167 -52 -109.5v-381c0 -41.333 15.667 -77 47 -107c28.667 -28 64.334 -46 107.001 -54c10 -2 19.667 -3 29 -3c59.333 0 103.666 42 132.999 126c23.333 66.667 35 146.667 35 240z" />
    <glyph glyph-name="q" unicode="q" horiz-adv-x="1234" 
d="M1152 -379h-334.001v515l-10 -22c-18 -36.667 -46 -66 -84 -88c-47.333 -27.333 -106.666 -41 -177.999 -41c-150 0 -262.333 64 -337 192c-61.333 105.333 -92 241 -92 407c0 188 39 332.667 117 434c76 98 181.667 147 317 147c82.667 0 151 -14 205 -42
c50 -26 99.333 -70.667 148 -134l87 166h161v-1534zM824.999 423v341c0 43.333 -13.667 82.333 -41 117c-31.333 39.333 -71 59 -119 59c-5.33301 0 -11.5 -0.5 -18.5 -1.5s-12.5 -1.83301 -16.5 -2.5c-67.333 -14 -112.666 -51.333 -135.999 -112
c-18 -47.333 -27 -126 -27 -236c0 -122 10.667 -211 32 -267c25.333 -66.667 68.666 -100 129.999 -100c11.333 0 23 1 35 3c46 8 84.333 32.167 115 72.5s46 82.5 46 126.5z" />
    <glyph glyph-name="r" unicode="r" horiz-adv-x="796" 
d="M748 824c-50 0 -83.666 -1.66406 -100.999 -4.99707c-32 -6 -60.333 -21.333 -85 -46c-33.333 -32.667 -57.5 -78.334 -72.5 -137.001s-22.5 -126.334 -22.5 -203.001v-433h-325v1155h308v-228c3.33301 14.667 8.66602 31 15.999 49s13 30.333 17 37
c44 65.333 80.5 109.166 109.5 131.499s59.833 33.5 92.5 33.5h63v-354z" />
    <glyph glyph-name="s" unicode="s" horiz-adv-x="1207" 
d="M1117 421c4 -22 6 -43.332 6 -63.999c0 -108 -49.5 -197.667 -148.5 -269s-218.5 -107 -358.5 -107c-60.667 0 -120.667 6.66699 -180 20c-78.667 18 -142.667 44 -192 78c-62.667 43.333 -103 99 -121 167l-19 74l273 38l14 -41c11.333 -34 39.5 -60.333 84.5 -79
s94.833 -28 149.5 -28c57.333 0 105 9 143 27c42 20 63 47 63 81c0 6 -0.333008 10.333 -1 13c-6 35.333 -42.667 60 -110 74l-195 31c-86 17.333 -143.667 31.666 -173 42.999c-55.333 21.333 -101.333 55.666 -138 102.999c-26 34 -44.833 67.167 -56.5 99.5
s-17.5 69.166 -17.5 110.499c0 124.667 49.333 220 148 286c85.333 57.333 193 86 323 86c133.333 0 234.333 -25.333 303 -76c56.667 -42 107.667 -116.333 153 -223l-237 -65l-15 43c-12 34.667 -38.667 61.5 -80 80.5s-86.666 28.5 -135.999 28.5
c-46.667 0 -86.167 -8.5 -118.5 -25.5s-48.5 -41.167 -48.5 -72.5c0 -7.33301 1.66699 -16.666 5 -27.999c9.33301 -28 47.333 -50.333 114 -67c21.333 -5.33301 89.666 -17.333 204.999 -36c88 -14 150 -30.333 186 -49c50.667 -26 90 -60 118 -102
c26 -39.333 45 -89.666 57 -150.999z" />
    <glyph glyph-name="t" unicode="t" horiz-adv-x="959" 
d="M864 0c-7.33301 -4 -25.1699 -7.33398 -53.5029 -10.001s-60.166 -4 -95.499 -4c-43.333 0 -86.166 1.66699 -128.499 5s-77.166 8.33301 -104.499 15c-60 14 -108.833 43.5 -146.5 88.5s-56.5 98.167 -56.5 159.5v632h-188v269h196l26 328l289 24v-352h245v-268h-245
v-520c0 -23.333 4.83301 -43.5 14.5 -60.5s24.5 -30.167 44.5 -39.5c6 -3.33301 12.833 -5.66602 20.5 -6.99902s15.167 -2 22.5 -2c14 0.666992 25 1 33 1l127 -10v-249z" />
    <glyph glyph-name="u" unicode="u" horiz-adv-x="1175" 
d="M1075 0l-313.001 -0.000976562v194c-60 -142.667 -175 -214 -345 -214c-89.333 0 -166 30 -230 90s-96 133.667 -96 221v864h335v-752c0 -50.667 8 -87.667 24 -111c19.333 -28.667 53.333 -43 102 -43c62.667 0 111.334 24 146.001 72c28 38.667 42 83.334 42 134.001
v700h335v-1155z" />
    <glyph glyph-name="v" unicode="v" horiz-adv-x="1012" 
d="M966 1155l-284 -1155h-300l-349 1155h320l187 -674l160 674h266z" />
    <glyph glyph-name="w" unicode="w" horiz-adv-x="1769" 
d="M1720 1155l-351 -1155h-315l-169 719l-188 -719h-300l-363 1155h360l196 -725l181 725h309l174 -729l199 729h267z" />
    <glyph glyph-name="x" unicode="x" horiz-adv-x="1189" 
d="M1135 0h-373l-227 383l-224 -383h-272l349 606l-311 549h374l176 -322l172 322h282l-314 -546z" />
    <glyph glyph-name="y" unicode="y" horiz-adv-x="1090" 
d="M1042 1155l-387.002 -1204c-27.333 -85.333 -55 -147 -83 -185c-23.333 -32 -55 -60.667 -95 -86c-30.667 -18.667 -70 -32 -118 -40c-36.667 -6 -75.667 -9 -117 -9h-11c-11.333 0 -21.666 0.166992 -30.999 0.5s-18 0.5 -26 0.5l-78 8v254l44 -2
c19.333 0 45.333 -1.66699 78 -5s56.334 -5 71.001 -5c6.66699 0 12.667 0.166992 18 0.5s10 0.833008 14 1.5c32 4 59.333 19 82 45s34 54.333 34 85c0 12 -2 24 -6 36l-405 1105h354l213 -669l203 669h246z" />
    <glyph glyph-name="z" unicode="z" horiz-adv-x="1097" 
d="M1014 0h-910v243l503 681h-461v231h842v-216l-505 -690h531v-249z" />
    <glyph glyph-name="braceleft" unicode="{" horiz-adv-x="809" 
d="M725 -206h-160c-42 0 -77.5 6.33301 -106.5 19s-60.167 34 -93.5 64c-24.667 21.333 -43.334 46 -56.001 74c-17.333 38 -26 85.333 -26 142l-1 462c0 26.667 -8.66699 51 -26 73c-23.333 30 -56 45 -98 45h-55v189h30h17c32 0 53.833 2 65.5 6s23.334 11.5 35.001 22.5
s20.667 21.167 27 30.5s9.5 20 9.5 32v488c0 60.667 18.333 115.334 55 164.001c22.667 30 51.667 55 87 75s65.666 30 90.999 30h205v-199h-103c-20.667 0 -38.334 -6.16699 -53.001 -18.5s-24 -28.833 -28 -49.5v-501c0 -33.333 -13.333 -65.333 -40 -96
c-15.333 -18.667 -39.666 -37 -72.999 -55s-61 -27 -83 -27c22 0 47.333 -5.5 76 -16.5s48 -22.833 58 -35.5c20 -26.667 34.833 -52.167 44.5 -76.5s14.5 -51.833 14.5 -82.5l4 -499c2.66699 -14.667 10 -27 22 -37c6.66699 -6.66699 15.334 -11.834 26.001 -15.501
s19.667 -5.5 27 -5.5h108v-202z" />
    <glyph glyph-name="bar" unicode="|" horiz-adv-x="408" 
d="M333 -378h-235v1912h234z" />
    <glyph glyph-name="braceright" unicode="}" horiz-adv-x="815" 
d="M732 681l-55.0029 0.00292969c-42 0 -74.667 -15 -98 -45c-9.33301 -12 -16 -23.333 -20 -34s-6 -23.667 -6 -39v-462c0 -56.667 -8.66699 -103.667 -26 -141c-12.667 -27.333 -31.667 -52.333 -57 -75c-32.667 -28.667 -63.834 -49.667 -93.501 -63
s-65.167 -20 -106.5 -20h-160v203h108c8.66699 0 17.834 1.5 27.501 4.5s17.834 7.83301 24.501 14.5s11.834 12.667 15.501 18s6.16699 12 7.5 20v497c0 32 5.33301 60.667 16 86c8.66699 20 24.334 45 47.001 75c10 13.333 29.167 25.333 57.5 36s53.833 16 76.5 16
c-21.333 0 -48.833 8.83301 -82.5 26.5s-58.5 36.167 -74.5 55.5c-26 32 -39 64 -39 96v502c-4 19.333 -13.333 35.333 -28 48s-32.334 19 -53.001 19h-103v200h204c26 0 56.5 -10 91.5 -30s64.167 -45.333 87.5 -76c36.667 -48.667 55 -103 55 -163v-488
c0 -12.667 3 -23.834 9 -33.501s15.5 -20.334 28.5 -32.001s27.833 -18.834 44.5 -21.501s40.334 -4 71.001 -4h31v-190z" />
    <glyph glyph-name="asciitilde" unicode="~" horiz-adv-x="1013" 
d="M928 1486c0 -80 -11.667 -140.999 -35 -182.999c-32 -58 -87.333 -87 -166 -87c-28.667 0 -68.834 13.5 -120.501 40.5l-149.5 80.5c-54.667 28.667 -93.667 43 -117 43c-20 0 -35.833 -5.83301 -47.5 -17.5s-17.5 -31.834 -17.5 -60.501v-35h-158
c6.66699 77.333 23.334 138 50.001 182c34.667 57.333 85 86 151 86c48 0 98 -15 150 -45l128 -83c50.667 -30.667 96.667 -46 138 -46c16.667 0 29 15.333 37 46c5.33301 19.333 8 36.333 8 51l-1 28h150z" />
    <glyph glyph-name="nonbreakingspace" unicode="&#xa0;" horiz-adv-x="1422" 
 />
    <glyph glyph-name="exclamdown" unicode="&#xa1;" horiz-adv-x="601" 
d="M485 810h-339v348h339v-348zM525 -375h-419l106 1074h204z" />
    <glyph glyph-name="cent" unicode="&#xa2;" horiz-adv-x="1226" 
d="M1123 922l-297.999 -14c0 56.667 -15.667 103.334 -47 140.001c-34.667 40.667 -81.667 61 -141 61c-76.667 0 -131 -34.667 -163 -104c-24 -52 -36 -126.333 -36 -223c0 -90.667 14 -163 42 -217c34.667 -66.667 87 -100 157 -100c8.66699 0 15.334 0.333008 20.001 1
c58.667 0 102 20 130 60c23.333 33.333 35 78 35 134l295 -23c0 -54 -10.333 -103 -31 -147c-18 -38.667 -48 -80.334 -90 -125.001c-24 -26 -59.333 -52.333 -106 -79c-58 -33.333 -113.333 -53 -166 -59v-290h-187v289l-65 19c-96.667 28 -175 75.667 -235 143
c-50 56 -86.333 123.333 -109 202c-18 62.667 -27 128.667 -27 198c0 117.333 21.333 217 64 299c35.333 67.333 83.666 121.666 144.999 162.999c45.333 30.667 97.666 53.334 156.999 68.001l68 18v237h189v-237c46 -4 94.333 -17.667 145 -41
c42 -19.333 74.333 -39.333 97 -60c44.667 -41.333 80 -85 106 -131c34 -59.333 51 -120 51 -182z" />
    <glyph glyph-name="sterling" unicode="&#xa3;" horiz-adv-x="1475" 
d="M1393 406c-16 -80.667 -50.5 -153.832 -103.5 -219.499s-109 -113.5 -168 -143.5s-128.5 -45 -208.5 -45h-802v291h139c57.333 0 105.333 26.333 144 79c34 46 51 95.333 51 148c0 11.333 0.333008 22 1 32l2 29c0 16.667 -0.666992 31.334 -2 44.001
s-4.66602 30.667 -9.99902 54l-4 17h-213v241h173c-6 26 -9.83301 48.833 -11.5 68.5s-2.5 46.167 -2.5 79.5c0 155.333 38 272 114 350c79.333 81.333 202 122 368 122c106 0 196.667 -24.833 272 -74.5s133.666 -122.167 174.999 -217.5l-288 -115c0 31.333 -14 63 -42 95
c-31.333 36 -66.333 54 -105 54c-5.33301 -0.666992 -9.33301 -1 -12 -1c-46 -4.66699 -80.667 -22.334 -104 -53.001c-20 -26.667 -30 -61.334 -30 -104.001c0 -10 0.333008 -17.667 1 -23l17 -180h253v-242h-228v-80c0 -62.667 -18.667 -127.334 -56 -194.001
c-15.333 -27.333 -31.166 -50.666 -47.499 -69.999s-37.166 -39 -62.499 -59l247 3c41.333 0 77.166 8.83301 107.499 26.5s58.166 44.5 83.499 80.5c21.333 30.667 35 63 41 97z" />
    <glyph glyph-name="yen" unicode="&#xa5;" horiz-adv-x="1423" 
d="M1342 1514l-287 -531h250v-210h-364l-75 -142h427v-210l-429 -4l1 -423h-299v423l-434 4v210h434v4l-70 138h-352v210h243l-283 540h388l274 -580l290 571h286z" />
    <glyph glyph-name="section" unicode="&#xa7;" horiz-adv-x="1266" 
d="M1179 58c0 -136.667 -55.3301 -245.002 -165.997 -325.002c-100 -72.667 -222.333 -109 -367 -109c-122.667 0 -227 23.667 -313 71c-102.667 56.667 -181.334 147.667 -236.001 273l281 49l35 -51c25.333 -37.333 62.166 -66 110.499 -86s98.5 -30 150.5 -30
c60 0 109.667 11.333 149 34c43.333 24.667 65 58 65 100c0 70.667 -64.333 132.334 -193 185.001c-228 94 -347.667 144.333 -359 151c-128.667 76 -193 177.667 -193 305c0 63.333 17.667 130.333 53 201c25.333 50 56 96 92 138c-37.333 38 -64.333 76.333 -81 115
s-25 83.667 -25 135c0 111.333 48.333 203 145 275c90 67.333 196.667 101 320 101c117.333 0 217.333 -22.667 300 -68c88 -48 156.667 -122 206 -222l-239 -61l-25 44c-16.667 30 -46 53.667 -88 71s-86.333 26 -133 26c-50.667 0 -94.667 -9.16699 -132 -27.5
s-56 -44.166 -56 -77.499c-0.666992 -8 -1 -13.667 -1 -17c0 -43.333 29 -80 87 -110c14 -7.33301 71 -29 171 -65c163.333 -60 275 -120.667 335 -182c54.667 -56 82 -132 82 -228c0 -64 -10.833 -121 -32.5 -171s-56.834 -96.333 -105.501 -139
c56.667 -43.333 97 -86 121 -128c28 -48.667 42 -107.667 42 -177zM872.003 603.998c0 24.667 -10.999 50.667 -32.999 78c-24 30 -52.667 51.667 -86 65l-243 99c-24.667 -8.66699 -45.334 -23.167 -62.001 -43.5s-25 -39.5 -25 -57.5c0 -5.33301 -0.333008 -12.333 -1 -21
s-1 -13.667 -1 -15c0 -24 5.66699 -44 17 -60c16.667 -24 46.667 -45 90 -63l265 -113c52.667 27.333 79 71 79 131z" />
    <glyph glyph-name="dieresis" unicode="&#xa8;" horiz-adv-x="806" 
d="M353 1435c0 -36 -12.168 -67.8311 -36.501 -95.498s-54.166 -41.5 -89.499 -41.5s-65.666 13 -90.999 39s-38 56.667 -38 92s12 65.666 36 90.999s53 38 87 38c35.333 0 66.166 -11.833 92.499 -35.5s39.5 -52.834 39.5 -87.501zM714.999 1429
c0 -35.333 -11.167 -66.501 -33.5 -93.501s-50.5 -40.5 -84.5 -40.5c-36 0 -67.5 11.5 -94.5 34.5s-40.5 51.5 -40.5 85.5c0 36.667 11.833 68.334 35.5 95.001s53.167 40 88.5 40c34 0 64 -11.667 90 -35s39 -52 39 -86z" />
    <glyph glyph-name="copyright" unicode="&#xa9;" horiz-adv-x="1681" 
d="M837 0c-159.333 0 -297.668 36.665 -415.001 109.998c-108 67.333 -191.333 159.333 -250 276c-55.333 110 -83 230.333 -83 361c0 128.667 27.667 248.334 83 359.001c59.333 118 142.333 210.333 249 277c118.667 74 257.334 111 416.001 111s296.667 -36.667 414 -110
c107.333 -67.333 190.333 -159.666 249 -276.999c55.333 -110.667 83 -230.667 83 -360c0 -130 -27.333 -250 -82 -360c-58 -117.333 -140.667 -209.333 -248 -276c-118 -74 -256.667 -111 -416 -111zM836.998 79.998c209.333 0 375.667 69.332 499 207.999
c111.333 125.333 167 278.333 167 459s-55.333 333.334 -166 458.001c-123.333 139.333 -290 209 -500 209s-376.667 -69.333 -500 -208c-111.333 -125.333 -167 -278.333 -167 -459c0 -181.333 55.333 -334.333 166 -459c123.333 -138.667 290.333 -208 501 -208z
M1205 594.997c-17.333 -96 -61.333 -172.834 -132 -230.501s-156.667 -86.5 -258 -86.5c-129.333 0 -225.666 48.333 -288.999 145c-53.333 81.333 -80 187.333 -80 318s32.667 240 98 328c72.667 98.667 172 148 298 148c87.333 0 162.333 -21.333 225 -64
c68 -46 108.667 -109 122 -189l6 -35h-89l-6 29c-12.667 56.667 -45 101.334 -97 134.001c-47.333 30 -101.333 45 -162 45c-105.333 0 -185 -41.333 -239 -124c-45.333 -70 -68 -160 -68 -270c0 -111.333 17 -196.333 51 -255c45.333 -78 123.666 -123.333 234.999 -136
c4 -0.666992 8 -1 12 -1h13c62.667 0 120 23.667 172 71s84.667 105 98 173h90z" />
    <glyph glyph-name="ordfeminine" unicode="&#xaa;" horiz-adv-x="924" 
d="M793 829l-203.001 0.00195312l-8 53l-4 46c-18 -32 -48.333 -59.667 -91 -83c-39.333 -21.333 -81.666 -32 -126.999 -32c-63.333 0 -115 16 -155 48c-45.333 36 -68 87.333 -68 154c0 81.333 37.333 142.666 112 183.999c56.667 31.333 134.334 51.333 233.001 60l88 9
v74c0 18.667 -10 34.5 -30 47.5s-42 19.5 -66 19.5c-36 0 -64.5 -8.83301 -85.5 -26.5s-33.167 -42.167 -36.5 -73.5l-194 16l2 13c10.667 69.333 51.667 122.666 123 159.999c60 31.333 130.333 47 211 47c98.667 0 172.667 -20.333 222 -61
c35.333 -28.667 54.666 -63.334 57.999 -104.001l6 -60v-413c0 -15.333 2 -32.666 6 -51.999zM828.999 548.002h-715v171h715v-171zM570.999 1083l-0.000976562 78.999l-62 -6c-38 -3.33301 -72.333 -15.666 -103 -36.999c-34.667 -24 -52 -52 -52 -84
c0 -10.667 1.83301 -21 5.5 -31s9.83398 -21 18.501 -33c12.667 -17.333 32 -26 58 -26c32 0 61.667 12.333 89 37c30.667 28 46 61.667 46 101z" />
    <glyph glyph-name="guillemotleft" unicode="&#xab;" horiz-adv-x="1172" 
d="M1077 808l-309 -221l302 -215v-224l-429 334v215l436 322v-211zM530 808l-309 -221l303 -215v-224l-430 334v215l436 322v-211z" />
    <glyph glyph-name="logicalnot" unicode="&#xac;" horiz-adv-x="1674" 
d="M1577 0h-123v522h-1372v115h1495v-637z" />
    <glyph glyph-name="registered" unicode="&#xae;" horiz-adv-x="1686" 
d="M843 0c-159.333 0 -297.666 36.665 -414.999 109.998c-107.333 67.333 -190.333 159.333 -249 276c-55.333 110.667 -83 231 -83 361c0 202.667 62 373.667 186 513c138.667 156 325.667 234 561 234c159.333 0 297.666 -36.667 414.999 -110
c107.333 -67.333 190.333 -159.666 249 -276.999c55.333 -110.667 83 -230.667 83 -360c0 -203.333 -62 -374.666 -186 -513.999c-138 -155.333 -325 -233 -561 -233zM843 79.998c210 0 376.667 69.332 500 207.999c111.333 125.333 167 278.333 167 459
s-55.333 333.334 -166 458.001c-123.333 139.333 -290.333 209 -501 209c-210 0 -376.667 -69.333 -500 -208c-111.333 -125.333 -167 -278.333 -167 -459s55.667 -333.667 167 -459c123.333 -138.667 290 -208 500 -208zM1200 287.997h-92.999c-2.66699 0 -5 0.333008 -7 1
c-14 28 -21.5 76.667 -22.5 146s-3.16699 113.666 -6.5 132.999c-9.33301 50.667 -32.333 85.667 -69 105c-15.333 8 -31 13.5 -47 16.5s-33 4.5 -51 4.5h-37h-239v-406h-87v897h329c96 0 170 -14 222 -42c70.667 -38 106 -102 106 -192c0 -55.333 -12.5 -101 -37.5 -137
s-61.833 -64.667 -110.5 -86c29.333 -16 45.666 -25.333 48.999 -28c14.667 -10.667 27.167 -26 37.5 -46s17.333 -40 21 -60s5.5 -41.667 5.5 -65c0 -9.33301 -0.333008 -23.333 -1 -42s-1 -33 -1 -43c0 -22.667 1.16699 -43.167 3.5 -61.5s7.5 -38.166 15.5 -59.499
c2 -6 4 -10.667 6 -14zM1112 940.997c0 62.667 -24 108 -72 136c-38 22 -90 33 -156 33h-256l1 -340h251c67.333 0 120 10.667 158 32c49.333 28 74 74.333 74 139z" />
    <glyph glyph-name="degree" unicode="&#xb0;" horiz-adv-x="660" 
d="M571 1303c0 -62.667 -20.8311 -116.999 -62.498 -162.999s-92.834 -69 -153.501 -69c-67.333 0 -126 22.667 -176 68s-75 100.333 -75 165c0 63.333 22.667 118 68 164s99.666 69 162.999 69c64.667 0 120.167 -22.833 166.5 -68.5s69.5 -100.834 69.5 -165.501z
M509.002 1313c0 46 -17.168 84.833 -51.501 116.5s-75.166 47.5 -122.499 47.5c-46.667 0 -86.5 -17.5 -119.5 -52.5s-49.5 -76.5 -49.5 -124.5c0 -46 17.833 -85.167 53.5 -117.5s77.5 -48.5 125.5 -48.5c46 0 84.833 17.833 116.5 53.5s47.5 77.5 47.5 125.5z" />
    <glyph glyph-name="plusminus" unicode="&#xb1;" horiz-adv-x="1031" 
d="M927 613h-367v-366h-95v366h-364l1 104h363v366h98v-367h364v-103zM919 -3h-833v79h833v-79z" />
    <glyph glyph-name="acute" unicode="&#xb4;" horiz-adv-x="754" 
d="M675 1396l-513 -190l-58 133l496 244z" />
    <glyph glyph-name="mu" unicode="&#xb5;" horiz-adv-x="1383" 
d="M1285 217l-13.002 -67.001c-11.333 -54 -44.333 -100.333 -99 -139c-50 -35.333 -98.333 -53 -145 -53c-8.66699 0 -15 0.333008 -19 1c-48.667 6.66699 -92 30.334 -130 71.001c-40.667 43.333 -61 91.666 -61 144.999l-56 -55
c-44.667 -44.667 -92.5 -81.667 -143.5 -111s-95.5 -44 -133.5 -44c-36.667 0 -77.667 10.333 -123 31c-54 24.667 -96 57.334 -126 98.001v-77c0 -46 12.833 -103.167 38.5 -171.5s38.5 -129.833 38.5 -184.5c0 -37.333 -9.33301 -69.666 -28 -96.999
c-20.667 -30 -47.667 -45 -81 -45c-30 0 -55 13 -75 39s-30 55.667 -30 89c0 44 5.66699 85 17 123c31.333 103.333 47.333 159 48 167s1.66699 18.333 3 31s2 22.667 2 30v1089h184v-749c0 -61.333 18.5 -115.333 55.5 -162s84.167 -70 141.5 -70
c58.667 0 117.334 22.667 176.001 68c64 49.333 96 103.333 96 162v751h180v-846c0 -44.667 9.66699 -84.334 29 -119.001c22 -40 50.333 -60 85 -60c4 0 10 0.666992 18 2c24.667 4.66699 44.834 15.167 60.501 31.5s27.167 37.5 34.5 63.5l17 58h39z" />
    <glyph glyph-name="paragraph" unicode="&#xb6;" horiz-adv-x="1338" 
d="M1252 1383l-185 0.000976562v-1772h-155v1778h-193v-1778h-157v968c-134.667 0 -242.334 41 -323.001 123c-86 87.333 -129 210.666 -129 369.999c0 117.333 41.667 223 125 317c90.667 102.667 202.334 154 335.001 154h682v-160z" />
    <glyph glyph-name="periodcentered" unicode="&#xb7;" horiz-adv-x="547" 
d="M455 614h-345v348h345v-348z" />
    <glyph glyph-name="periodcentered" unicode="&#x2219;" horiz-adv-x="547" 
d="M455 614h-345v348h345v-348z" />
    <glyph glyph-name="ordmasculine" unicode="&#xba;" horiz-adv-x="899" 
d="M786 1178c0 -113.333 -31.667 -206 -95 -278s-145 -108 -245 -108c-114 0 -201.667 38.667 -263 116c-54 68 -81 156.333 -81 265c0 104.667 27.333 189.667 82 255c61.333 73.333 148 110 260 110c112.667 0 199 -35 259 -105c55.333 -64.667 83 -149.667 83 -255z
M790 535h-678v180h678v-180zM563 1154c0 76.667 -5.66797 133.335 -17.001 170.002c-18 58.667 -52.333 88 -103 88c-48 0 -81.333 -21.667 -100 -65c-14 -32.667 -21 -81.334 -21 -146.001c0 -78.667 5.66699 -137.334 17 -176.001c18 -60.667 52 -91 102 -91
c50.667 0 85.334 24.333 104.001 73c12 32 18 81 18 147z" />
    <glyph glyph-name="guillemotright" unicode="&#xbb;" horiz-adv-x="1145" 
d="M1067 482l-429 -334v224l302 215l-308 221v211l435 -322v-215zM521 482l-430 -334v224l303 215l-310 221v211l437 -322v-215z" />
    <glyph glyph-name="questiondown" unicode="&#xbf;" horiz-adv-x="1253" 
d="M813 823h-348v348h347zM1165 128c0 -143.333 -52.334 -263.331 -157.001 -359.998s-234.667 -145 -390 -145c-148.667 0 -267.667 32 -357 96c-106 76 -159 191 -159 345c0 104.667 34 198 102 280c28 33.333 91.667 89.333 191 168c68.667 54 103 99 103 135v93h289v-65
c0 -98.667 -9 -169.667 -27 -213c-4.66699 -10.667 -26.667 -42.334 -66 -95.001c-13.333 -17.333 -43.166 -42.5 -89.499 -75.5s-78.833 -60.167 -97.5 -81.5c-32 -36.667 -48 -77 -48 -121c0 -49.333 10 -89.833 30 -121.5s52 -54.834 96 -69.501
c20 -6.66699 39.667 -10 59 -10c58.667 0 110 30.667 154 92c34 47.333 52.667 88.333 56 123l6 62z" />
    <glyph glyph-name="Agrave" unicode="&#xc0;" horiz-adv-x="1606" 
d="M1122 1756l-54 -132l-504 184l67 187zM1520 -1h-393l-90 319h-493l-97 -319h-317l497 1540h416zM952 604l-157 526l-162 -526h319z" />
    <glyph glyph-name="Aacute" unicode="&#xc1;" horiz-adv-x="1518" 
d="M1448 0h-393l-90 308h-493l-97 -308h-317l497 1538h417zM880 600l-157 527l-161 -527h318zM1053 1829l-513 -190l-58 133l496 244z" />
    <glyph glyph-name="Acircumflex" unicode="&#xc2;" horiz-adv-x="1496" 
d="M1448 0h-393l-90 308h-493l-97 -308h-317l497 1538h417zM880 600l-157 527l-161 -527h318zM1182 1638h-241l-180 122l-179 -120h-238l414 334z" />
    <glyph glyph-name="Atilde" unicode="&#xc3;" horiz-adv-x="1606" 
d="M1228 1892c0 -80.667 -11.668 -142 -35.001 -184c-32 -57.333 -87.333 -86 -166 -86c-28.667 0 -68.834 13.5 -120.501 40.5l-149.5 80.5c-54 28.667 -92.667 43 -116 43c-20 0 -35.333 -5.33301 -46 -16c-13.333 -13.333 -20 -34 -20 -62v-36h-158
c6.66699 78 23.334 139 50.001 183c34.667 57.333 85 86 151 86c48 0 98 -15 150 -45l128 -83c50.667 -30.667 96.334 -46 137.001 -46c13.333 0 24.333 10.167 33 30.5s13 42.5 13 66.5l-1 28h150zM1494 -10h-393l-90 316h-493l-97 -311h-317l497 1543h416zM925.999 592
l-157 526l-162 -526h319z" />
    <glyph glyph-name="Adieresis" unicode="&#xc4;" horiz-adv-x="1573" 
d="M749 1799c0 -36 -12.168 -67.8311 -36.501 -95.498s-54.166 -41.5 -89.499 -41.5s-65.666 13 -90.999 39s-38 56.667 -38 92s12 65.666 36 90.999s53 38 87 38c35.333 0 66.166 -11.833 92.499 -35.5s39.5 -52.834 39.5 -87.501zM1111 1793
c0 -35.333 -11.167 -66.501 -33.5 -93.501s-50.5 -40.5 -84.5 -40.5c-36 0 -67.5 11.5 -94.5 34.5s-40.5 51.5 -40.5 85.5c0 36.667 11.833 68.334 35.5 95.001s53.167 40 88.5 40c34 0 64 -11.667 90 -35s39 -52 39 -86zM1487 -2.99902h-392l-90 321h-494l-96 -321h-318
l497 1542h417zM919.999 604.001l-158 526l-161 -526h319z" />
    <glyph glyph-name="Aring" unicode="&#xc5;" horiz-adv-x="1564" 
d="M1048 1868c0 -62.667 -20.8311 -117.165 -62.498 -163.498s-92.834 -69.5 -153.501 -69.5c-67.333 0 -126 22.667 -176 68s-75 100.666 -75 165.999c0 63.333 22.667 118 68 164s99.666 69 162.999 69c64.667 0 120.167 -22.833 166.5 -68.5s69.5 -100.834 69.5 -165.501
zM1488 -4.99805h-393l-90 316h-493l-97 -311h-317l497 1538h417zM986.002 1878c0 45.333 -17.332 83.999 -51.999 115.999s-75.334 48 -122.001 48s-86.5 -17.5 -119.5 -52.5s-49.5 -76.5 -49.5 -124.5c0 -46.667 17.833 -86.167 53.5 -118.5s77.5 -48.5 125.5 -48.5
c46 0 84.833 17.833 116.5 53.5s47.5 77.834 47.5 126.501zM920.003 597.001l-157 526l-161 -526h318z" />
    <glyph glyph-name="AE" unicode="&#xc6;" horiz-adv-x="2237" 
d="M2146 0h-1091l1 314h-493l-194 -315h-317l967 1537h1127v-302h-735v-310h574v-297h-580v-319h741v-308zM1058 600v525l-318 -525h318z" />
    <glyph glyph-name="Ccedilla" unicode="&#xc7;" horiz-adv-x="1501" 
d="M1401 534c0 -48.667 -7.33398 -94.9971 -22.001 -138.997c-17.333 -52.667 -52 -116 -104 -190c-43.333 -62 -106.666 -114.667 -189.999 -158c-92 -48 -186.667 -72 -284 -72l-26 -65c59.333 0 108.666 -13.667 147.999 -41c44.667 -31.333 67 -75.666 67 -132.999
c0 -48 -21.5 -88.5 -64.5 -121.5s-96.167 -49.5 -159.5 -49.5c-30.667 0 -60.334 3.83301 -89.001 11.5s-58.667 20.167 -90 37.5l-47 27l39 88l33 -17c21.333 -10.667 44 -19.334 68 -26.001s45.333 -10 64 -10c22 0 39.333 4.5 52 13.5s19 23.167 19 42.5
c0 28 -9.83301 50.167 -29.5 66.5s-47.5 24.5 -83.5 24.5c-10 0 -17.667 -0.333008 -23 -1l-49 -5l53 161l-80 17c-138.667 28.667 -255.167 115.167 -349.5 259.5s-141.5 310.166 -141.5 497.499c0 226 52.333 411.333 157 556c118 162.667 284.667 244 500 244
c142 0 260.667 -28.333 356 -85c84.667 -50.667 150.334 -123 197.001 -217c40.667 -82.667 66 -179.334 76 -290.001l-376 -25c0.666992 4 1 8.66699 1 14v12c0 72.667 -18.667 138 -56 196c-45.333 70.667 -106.666 106 -183.999 106
c-106.667 0 -181.667 -44.333 -225 -133c-38 -78 -57 -204.667 -57 -380c0 -142.667 20.667 -255.334 62 -338.001c48.667 -96.667 123 -145 223 -145c74.667 0 137 28.333 187 85s75 123.667 75 201z" />
    <glyph glyph-name="Egrave" unicode="&#xc8;" horiz-adv-x="1375" 
d="M1255 0h-1095v1538h1095v-308h-735v-306h574v-296h-580v-320h741v-308zM1000 1778l-54 -132l-503 184l67 187z" />
    <glyph glyph-name="Eacute" unicode="&#xc9;" horiz-adv-x="1276" 
d="M960 1844l-513 -191l-58 134l496 244zM1191 0h-1093l-2 1536h1095v-302h-735v-310h574v-297h-581v-319h742v-308z" />
    <glyph glyph-name="Ecircumflex" unicode="&#xca;" horiz-adv-x="1386" 
d="M1255 0h-1095v1538h1095v-308h-735v-306h574v-296h-580v-320h741v-308zM1136 1638h-241l-180 122l-179 -120h-238l414 334z" />
    <glyph glyph-name="Edieresis" unicode="&#xcb;" horiz-adv-x="1375" 
d="M1255 0h-1095v1538h1095v-308h-735v-306h574v-296h-580v-320h741v-308zM670 1780c0 -36 -12.168 -67.8311 -36.501 -95.498s-54.166 -41.5 -89.499 -41.5s-65.666 13 -90.999 39s-38 56.667 -38 92s12 65.666 36 90.999s53 38 87 38
c35.333 0 66.166 -11.833 92.499 -35.5s39.5 -52.834 39.5 -87.501zM1032 1774c0 -35.333 -11.167 -66.501 -33.5 -93.501s-50.5 -40.5 -84.5 -40.5c-36 0 -67.5 11.5 -94.5 34.5s-40.5 51.5 -40.5 85.5c0 36.667 11.833 68.334 35.5 95.001s53.167 40 88.5 40
c34 0 64 -11.667 90 -35s39 -52 39 -86z" />
    <glyph glyph-name="Igrave" unicode="&#xcc;" horiz-adv-x="627" 
d="M496 0h-363v1538h363v-1538zM593 1771l-54 -132l-503 184l67 187z" />
    <glyph glyph-name="Iacute" unicode="&#xcd;" horiz-adv-x="638" 
d="M496 0h-363v1538h363v-1538zM618 1813l-513 -190l-58 133l496 244z" />
    <glyph glyph-name="Icircumflex" unicode="&#xce;" horiz-adv-x="627" 
d="M496 0h-363v1538h363v-1538zM718 1640h-241l-180 122l-179 -120h-238l414 334z" />
    <glyph glyph-name="Idieresis" unicode="&#xcf;" horiz-adv-x="627" 
d="M496 0h-363v1538h363v-1538zM278 1782c0 -36 -12.168 -67.8311 -36.501 -95.498s-54.166 -41.5 -89.499 -41.5s-65.666 13 -90.999 39s-38 56.667 -38 92s12 65.666 36 90.999s53 38 87 38c35.333 0 66.166 -11.833 92.499 -35.5s39.5 -52.834 39.5 -87.501z
M639.999 1776c0 -35.333 -11.167 -66.501 -33.5 -93.501s-50.5 -40.5 -84.5 -40.5c-36 0 -67.5 11.5 -94.5 34.5s-40.5 51.5 -40.5 85.5c0 36.667 11.833 68.334 35.5 95.001s53.167 40 88.5 40c34 0 64 -11.667 90 -35s39 -52 39 -86z" />
    <glyph glyph-name="Ntilde" unicode="&#xd1;" horiz-adv-x="1371" 
d="M1113 1929c0 -80 -11.667 -141.333 -35 -184c-32 -58 -87 -87 -165 -87c-28.667 0 -69 13.5 -121 40.5l-150 80.5c-54.667 28.667 -93.334 43 -116.001 43c-20 0 -36 -5.83301 -48 -17.5s-18 -31.5 -18 -59.5v-36h-158c6.66699 78 23.334 139 50.001 183
c34.667 57.333 85 86 151 86c48 0 98 -15 150 -45l128 -84c50.667 -30.667 96.667 -46 138 -46c16.667 0 29 15.333 37 46c5.33301 20 8 37 8 51l-1 29h150zM1289 0h-303l-589 1038v-1038h-280v1540h387l507 -895v895h278v-1540z" />
    <glyph glyph-name="Ograve" unicode="&#xd2;" horiz-adv-x="1485" 
d="M1416 769c0 -140 -21.999 -267.001 -65.999 -381.001c-48.667 -126.667 -118.667 -225 -210 -295c-101.333 -78 -224.333 -117 -369 -117c-213.333 0 -381 83 -503 249c-109.333 148.667 -164 333.334 -164 554.001c0 210.667 60.667 390 182 538
c129.333 158 296.666 237 501.999 237c141.333 0 261.333 -38.667 360 -116c89.333 -70 157.333 -167.333 204 -292c42.667 -113.333 64 -239 64 -377zM1040 781.999c0 85.333 -5.99902 158.002 -17.999 218.002c-16 79.333 -42 140 -78 182
c-43.333 50.667 -101.666 76 -174.999 76c-74.667 0 -135.334 -28.333 -182.001 -85c-38 -46.667 -66 -111.667 -84 -195c-14 -66 -21 -138.667 -21 -218s7.66699 -152 23 -218c19.333 -82.667 48.333 -147 87 -193c47.333 -56 107.333 -84 180 -84
c73.333 0 131.333 27.667 174 83c35.333 45.333 60.666 111.666 75.999 198.999c12 67.333 18 145.666 18 234.999zM1046 1773l-54 -132l-503 184l67 187z" />
    <glyph glyph-name="Oacute" unicode="&#xd3;" horiz-adv-x="1485" 
d="M1416 769c0 -140 -21.999 -267.001 -65.999 -381.001c-48.667 -126.667 -118.667 -225 -210 -295c-101.333 -78 -224.333 -117 -369 -117c-213.333 0 -381 83 -503 249c-109.333 148.667 -164 333.334 -164 554.001c0 210.667 60.667 390 182 538
c129.333 158 296.666 237 501.999 237c141.333 0 261.333 -38.667 360 -116c89.333 -70 157.333 -167.333 204 -292c42.667 -113.333 64 -239 64 -377zM1040 781.999c0 85.333 -5.99902 158.002 -17.999 218.002c-16 79.333 -42 140 -78 182
c-43.333 50.667 -101.666 76 -174.999 76c-74.667 0 -135.334 -28.333 -182.001 -85c-38 -46.667 -66 -111.667 -84 -195c-14 -66 -21 -138.667 -21 -218s7.66699 -152 23 -218c19.333 -82.667 48.333 -147 87 -193c47.333 -56 107.333 -84 180 -84
c73.333 0 131.333 27.667 174 83c35.333 45.333 60.666 111.666 75.999 198.999c12 67.333 18 145.666 18 234.999zM1056 1831l-513 -190l-58 133l496 244z" />
    <glyph glyph-name="Ocircumflex" unicode="&#xd4;" horiz-adv-x="1485" 
d="M1416 769c0 -140 -21.999 -267.001 -65.999 -381.001c-48.667 -126.667 -118.667 -225 -210 -295c-101.333 -78 -224.333 -117 -369 -117c-213.333 0 -381 83 -503 249c-109.333 148.667 -164 333.334 -164 554.001c0 210.667 60.667 390 182 538
c129.333 158 296.666 237 501.999 237c141.333 0 261.333 -38.667 360 -116c89.333 -70 157.333 -167.333 204 -292c42.667 -113.333 64 -239 64 -377zM1040 781.999c0 85.333 -5.99902 158.002 -17.999 218.002c-16 79.333 -42 140 -78 182
c-43.333 50.667 -101.666 76 -174.999 76c-74.667 0 -135.334 -28.333 -182.001 -85c-38 -46.667 -66 -111.667 -84 -195c-14 -66 -21 -138.667 -21 -218s7.66699 -152 23 -218c19.333 -82.667 48.333 -147 87 -193c47.333 -56 107.333 -84 180 -84
c73.333 0 131.333 27.667 174 83c35.333 45.333 60.666 111.666 75.999 198.999c12 67.333 18 145.666 18 234.999zM1202 1640h-241l-180 122l-179 -120h-238l414 334z" />
    <glyph glyph-name="Otilde" unicode="&#xd5;" horiz-adv-x="1496" 
d="M1147 1909c-7.33301 -84.667 -20.333 -144.332 -39 -178.999c-30.667 -56 -84.667 -84 -162 -84c-28.667 0 -68.834 13.5 -120.501 40.5l-149.5 79.5c-54.667 28.667 -93.667 43 -117 43c-20 0 -35.833 -5.83301 -47.5 -17.5s-17.5 -31.834 -17.5 -60.501v-35h-158
c6.66699 78 23.334 139 50.001 183c34.667 57.333 85 86 151 86c48 0 98 -15 150 -45l128 -84c50.667 -30.667 96.667 -46 138 -46c16.667 0 29 15.333 37 46c5.33301 20 8 37 8 51l-1 29zM1405 771.002c0 -140.667 -21.998 -267.999 -65.998 -381.999
c-48.667 -126 -118.667 -224.333 -210 -295c-102 -78.667 -225 -118 -369 -118c-214 0 -382 83.333 -504 250c-109.333 149.333 -164 334.666 -164 555.999c0 210 60.667 389 182 537c129.333 158 296.666 237 501.999 237c141.333 0 261.666 -39 360.999 -117
c89.333 -70 157.333 -167 204 -291c42.667 -113.333 64 -239 64 -377zM1029 785.003c0 84.667 -6 157.001 -18 217.001c-16 80 -42 141 -78 183c-43.333 50.667 -101.666 76 -174.999 76c-74.667 0 -135.334 -28.333 -182.001 -85c-38 -46.667 -66 -112 -84 -196
c-14 -66 -21 -138.667 -21 -218c0 -78.667 7.66699 -151.334 23 -218.001c18.667 -82.667 47.667 -147 87 -193c47.333 -56 107.333 -84 180 -84c72 0 129.667 28 173 84c36 46.667 61.667 113 77 199c12 66.667 18 145 18 235z" />
    <glyph glyph-name="Odieresis" unicode="&#xd6;" horiz-adv-x="1506" 
d="M716 1767c0 -36.667 -12.333 -68.668 -37 -96.001s-54.667 -41 -90 -41s-65.666 13 -90.999 39s-38 57 -38 93c0 34.667 12.167 64.834 36.5 90.501s53.5 38.5 87.5 38.5c35.333 0 66.166 -11.833 92.499 -35.5s39.5 -53.167 39.5 -88.5zM1077 1762
c0 -36 -11.002 -67.5 -33.002 -94.5s-50 -40.5 -84 -40.5c-36 0 -67.5 11.5 -94.5 34.5s-40.5 51.833 -40.5 86.5c0 35.333 11.833 66.5 35.5 93.5s52.834 40.5 87.501 40.5s64.834 -11.5 90.501 -34.5s38.5 -51.5 38.5 -85.5zM1418 765.999
c0 -140.667 -21.998 -267.999 -65.998 -381.999c-48.667 -126 -118.667 -224.333 -210 -295c-102 -78.667 -225 -118 -369 -118c-214 0 -382 83.333 -504 250c-109.333 149.333 -164 334.666 -164 555.999c0 210 60.667 389 182 537c129.333 158 296.666 237 501.999 237
c141.333 0 261.666 -39 360.999 -117c89.333 -70 157.333 -167 204 -291c42.667 -113.333 64 -239 64 -377zM1042 780c0 84.667 -6.00098 157 -18.001 217c-16 80 -42 141 -78 183c-43.333 50.667 -101.666 76 -174.999 76c-74.667 0 -135.334 -28.333 -182.001 -85
c-38 -46.667 -66 -112 -84 -196c-14 -66 -21 -138.667 -21 -218c0 -78.667 7.66699 -151.334 23 -218.001c18.667 -82.667 47.667 -147 87 -193c47.333 -56 107.333 -84 180 -84s130.334 27.667 173.001 83c36 46 61.667 112.333 77 199c12 66.667 18 145.334 18 236.001z
" />
    <glyph glyph-name=".null" unicode="&#xd7;" horiz-adv-x="0" 
 />
    <glyph glyph-name=".null" unicode="&#x141;" horiz-adv-x="0" 
 />
    <glyph glyph-name=".null" unicode="&#xfd;" horiz-adv-x="0" 
 />
    <glyph glyph-name="Oslash" unicode="&#xd8;" horiz-adv-x="1527" 
d="M1416 769c0 -140 -21.999 -266.998 -65.999 -380.998c-48.667 -126.667 -118.667 -225 -210 -295c-101.333 -78 -224.333 -117 -369 -117c-58.667 0 -114.167 6.83301 -166.5 20.5s-101.5 33.5 -147.5 59.5l-50 -79h-238l131 206c-64.667 74 -113.5 163.167 -146.5 267.5
s-49.5 213.833 -49.5 328.5c0 210.667 60.667 390 182 538c129.333 158 296.666 237 501.999 237c59.333 0 117 -9.33301 173 -28c48 -16 96 -39.333 144 -70l63 99h234l-149 -236c54 -70.667 94.667 -153.834 122 -249.501s41 -195.834 41 -300.501zM936.001 1188
c-20 22 -43.832 39.166 -71.499 51.499s-59.5 18.5 -95.5 18.5c-74.667 0 -135.334 -28.333 -182.001 -85c-38 -46.667 -66 -111.667 -84 -195c-14 -66 -21 -138.667 -21 -218c0 -41.333 2.16699 -82.666 6.5 -123.999s11.5 -81.333 21.5 -120zM1040 782.001
c0 57.333 -4.66602 116.002 -13.999 176.002l-404 -640c20 -17.333 42.5 -30.5 67.5 -39.5s52.5 -13.5 82.5 -13.5c73.333 0 131.333 27.667 174 83c35.333 45.333 60.666 111.666 75.999 198.999c12 67.333 18 145.666 18 234.999z" />
    <glyph glyph-name="Ugrave" unicode="&#xd9;" 
d="M1318 585c0 -124.667 -11.667 -223.001 -35 -295.001c-32 -98 -88.333 -171.667 -169 -221c-94 -57.333 -226.333 -86 -397 -86c-227.333 0 -391 54.667 -491 164c-86 94 -129 233.333 -129 418v973h390l-1 -848c0 -177.333 15.667 -291.166 47 -341.499
s100.333 -75.5 207 -75.5c116 0 189.5 24 220.5 72s46.5 159.333 46.5 334l1 859h310v-953zM978 1773l-54 -132l-503 184l67 187z" />
    <glyph glyph-name="Uacute" unicode="&#xda;" 
d="M1318 585c0 -124.667 -11.667 -223.001 -35 -295.001c-32 -98 -88.333 -171.667 -169 -221c-94 -57.333 -226.333 -86 -397 -86c-227.333 0 -391 54.667 -491 164c-86 94 -129 233.333 -129 418v973h390l-1 -848c0 -177.333 15.667 -291.166 47 -341.499
s100.333 -75.5 207 -75.5c116 0 189.5 24 220.5 72s46.5 159.333 46.5 334l1 859h310v-953zM1043 1831l-513 -190l-58 133l496 244z" />
    <glyph glyph-name="Ucircumflex" unicode="&#xdb;" 
d="M1318 585c0 -124.667 -11.667 -223.001 -35 -295.001c-32 -98 -88.333 -171.667 -169 -221c-94 -57.333 -226.333 -86 -397 -86c-227.333 0 -391 54.667 -491 164c-86 94 -129 233.333 -129 418v973h390l-1 -848c0 -177.333 15.667 -291.166 47 -341.499
s100.333 -75.5 207 -75.5c116 0 189.5 24 220.5 72s46.5 159.333 46.5 334l1 859h310v-953zM1138 1640h-241l-180 122l-179 -120h-238l414 334z" />
    <glyph glyph-name="Udieresis" unicode="&#xdc;" horiz-adv-x="1419" 
d="M704 1818c0 -36 -12.168 -67.8311 -36.501 -95.498s-54.166 -41.5 -89.499 -41.5s-65.666 13 -90.999 39s-38 56.667 -38 92s12 65.666 36 90.999s53 38 87 38c35.333 0 66.166 -11.833 92.499 -35.5s39.5 -52.834 39.5 -87.501zM1066 1812
c0 -35.333 -11.167 -66.501 -33.5 -93.501s-50.5 -40.5 -84.5 -40.5c-36 0 -67.5 11.5 -94.5 34.5s-40.5 51.5 -40.5 85.5c0 36.667 11.833 68.334 35.5 95.001s53.167 40 88.5 40c34 0 64 -11.667 90 -35s39 -52 39 -86zM1328 584.001
c0 -124.667 -12 -223.334 -36 -296.001c-32 -97.333 -88.667 -170.666 -170 -219.999c-95.333 -58 -228 -87 -398 -87c-227.333 0 -391 54.667 -491 164c-86 94 -129 233.667 -129 419v973h389l-1 -848c0 -177.333 15.833 -291.333 47.5 -342s100.834 -76 207.501 -76
c115.333 0 188.666 24.167 219.999 72.5s47 159.5 47 333.5l1 860h311z" />
    <glyph glyph-name="germandbls" unicode="&#xdf;" horiz-adv-x="1563" 
d="M1466 376c0 -139.333 -54.001 -246.003 -162.001 -320.003c-93.333 -64 -211.666 -96 -354.999 -96c-44 0 -95.5 4.83301 -154.5 14.5s-103.167 21.167 -132.5 34.5l89 214l103 -26c34 -9.33301 68.667 -14 104 -14c48 0 87.667 8.33301 119 25
c36 19.333 59.333 48.333 70 87c2 9.33301 3 18 3 26c0 40.667 -29 79.667 -87 117c-32 20.667 -91.667 49 -179 85c-77.333 32 -125.333 55 -144 69c-40.667 31.333 -69.667 63.333 -87 96s-26 74.667 -26 126c0 38 14.5 81 43.5 129s58.5 80.667 88.5 98
c64.667 14.667 112 29.667 142 45c47.333 24.667 71 57.334 71 98.001v11c-4 39.333 -24 71.833 -60 97.5s-77.333 38.5 -124 38.5c-60.667 0 -111.334 -20.667 -152.001 -62c-48 -49.333 -72 -119.666 -72 -210.999v-1201h-352v886h-121v244h121
c0 65.333 5.16699 121.333 15.5 168s29.833 95 58.5 145c50.667 90 131.667 158.333 243 205c97.333 40.667 205.333 61 324 61c44 0 85.667 -3 125 -9c82 -12 157.333 -49.667 226 -113c73.333 -68 110 -141.667 110 -221c0 -42 -8.83301 -80.333 -26.5 -115
s-41.834 -64.667 -72.501 -90c-45.333 -37.333 -90.666 -63 -135.999 -77c-59.333 -13.333 -110.666 -26.333 -153.999 -39l-27 -9.5c-8.66699 -3 -13 -6.83301 -13 -11.5c0 -5.33301 8.33301 -11.666 25 -18.999c22.667 -10 55.334 -20.333 98.001 -31
c115.333 -29.333 215.666 -80 300.999 -152c104.667 -88 157 -189 157 -303z" />
    <glyph glyph-name="agrave" unicode="&#xe0;" horiz-adv-x="1265" 
d="M965 1381l-54 -132l-504 184l67 187zM1188 -1l-327.995 -0.000976562c-0.666992 4.66699 -2.83398 17.667 -6.50098 39s-6 37.333 -7 48s-2.16699 22.5 -3.5 35.5s-2 25.5 -2 37.5c-12 -19.333 -28.667 -39.666 -50 -60.999
c-34.667 -34.667 -73.334 -62.334 -116.001 -83.001c-58 -28 -120.333 -42 -187 -42c-102.667 0 -186.334 25.667 -251.001 77c-73.333 58.667 -110 142.334 -110 251.001c0 90.667 28.667 166 86 226c49.333 51.333 119.333 91.333 210 120c72.667 22.667 160 39 262 49
l143 13v120c0 30.667 -16.167 56.334 -48.5 77.001s-68.166 31 -107.499 31c-58 0 -103.833 -14.333 -137.5 -43s-53.834 -68.334 -60.501 -119.001l-314 27l4 20c18.667 113.333 85.667 200 201 260c97.333 50.667 210.666 76 339.999 76c111.333 0 203.333 -16 276 -48
c59.333 -26 104.666 -62 135.999 -108c24 -35.333 38 -72.666 42 -111.999l9 -96v-668c0 -30 3 -58.333 9 -85c0.666992 -8 2 -15.333 4 -22s4.33301 -13.334 7 -20.001zM831.005 537.999l-101.999 -8.99902c-60.667 -5.33301 -116 -25 -166 -59
c-56.667 -38.667 -85 -83.667 -85 -135c0 -16.667 3.16699 -33.834 9.5 -51.501s16.166 -35.834 29.499 -54.501c10.667 -15.333 24.5 -26.666 41.5 -33.999s35.5 -11 55.5 -11c52.667 0 100.667 20.333 144 61c48 44.667 72 99.667 72 165z" />
    <glyph glyph-name="aacute" unicode="&#xe1;" horiz-adv-x="1253" 
d="M948 1402l-514 -191l-58 134l496 244zM1161 -1l-327.995 -0.000976562c-0.666992 4.66699 -2.83398 17.667 -6.50098 39s-6 37.333 -7 48s-2.16699 22.5 -3.5 35.5s-2 25.5 -2 37.5c-12 -19.333 -28.667 -39.666 -50 -60.999
c-34.667 -34.667 -73.334 -62.334 -116.001 -83.001c-58 -28 -120.333 -42 -187 -42c-102.667 0 -186.334 25.667 -251.001 77c-73.333 58.667 -110 142.334 -110 251.001c0 90.667 28.667 166 86 226c49.333 51.333 119.333 91.333 210 120c72.667 22.667 160 39 262 49
l143 13v120c0 30.667 -16.167 56.334 -48.5 77.001s-68.166 31 -107.499 31c-58 0 -103.833 -14.333 -137.5 -43s-53.834 -68.334 -60.501 -119.001l-314 27l4 20c18.667 113.333 85.667 200 201 260c97.333 50.667 210.666 76 339.999 76c111.333 0 203.333 -16 276 -48
c59.333 -26 104.666 -62 135.999 -108c24 -35.333 38 -72.666 42 -111.999l9 -96v-668c0 -30 3 -58.333 9 -85c0.666992 -8 2 -15.333 4 -22s4.33301 -13.334 7 -20.001zM804.005 537.999l-101.999 -8.99902c-60.667 -5.33301 -116 -25 -166 -59
c-56.667 -38.667 -85 -83.667 -85 -135c0 -16.667 3.16699 -33.834 9.5 -51.501s16.166 -35.834 29.499 -54.501c10.667 -15.333 24.5 -26.666 41.5 -33.999s35.5 -11 55.5 -11c52.667 0 100.667 20.333 144 61c48 44.667 72 99.667 72 165z" />
    <glyph glyph-name="acircumflex" unicode="&#xe2;" horiz-adv-x="1263" 
d="M1088 1264h-241l-180 121l-179 -120h-238l414 334zM1175 -3l-326.997 0.00195312l-7 37.5c-2 11 -4.33301 27.167 -7 48.5c0 11.333 -0.833008 25.333 -2.5 42s-2.5 27.667 -2.5 33c-11.333 -18.667 -28 -39 -50 -61c-36 -35.333 -75 -63.333 -117 -84
c-58 -28 -120.333 -42 -187 -42c-102 0 -185.667 26 -251 78c-73.333 58.667 -110 142 -110 250c0 91.333 28.667 166.666 86 225.999c49.333 51.333 119.666 91.333 210.999 120c72.667 22.667 160 39 262 49l142 14v120c0 30 -16.333 55.333 -49 76
s-68.334 31 -107.001 31c-58 0 -103.833 -14.333 -137.5 -43s-53.5 -68 -59.5 -118l-314 27l3 20c18.667 113.333 86 200 202 260c96.667 50 210 75 340 75c111.333 0 203.333 -16 276 -48c60 -26.667 105.333 -62.667 136 -108c24 -35.333 37.667 -72.666 41 -111.999
l9 -95v-669c0 -16.667 0.666992 -30.334 2 -41.001s3.66602 -25.334 6.99902 -44.001zM819.003 536.002l-102 -9.00195c-61.333 -5.33301 -116.666 -24.666 -165.999 -57.999c-56.667 -38.667 -85 -84 -85 -136c0 -16 3.16699 -33.167 9.5 -51.5s16.166 -36.5 29.499 -54.5
c10.667 -15.333 24.5 -26.666 41.5 -33.999s35.5 -11 55.5 -11c52.667 0 100.667 20.333 144 61c48 44.667 72 99.667 72 165z" />
    <glyph glyph-name="atilde" unicode="&#xe3;" horiz-adv-x="1254" 
d="M1058 1482c0 -79.333 -11.666 -140.333 -34.999 -183c-32 -58 -87 -87 -165 -87c-28.667 0 -69 13.5 -121 40.5l-150 80.5c-54.667 28.667 -93.334 43 -116.001 43c-20 0 -35.333 -5.33301 -46 -16c-13.333 -13.333 -20 -34 -20 -62v-35h-157
c0 72.667 15.333 133.667 46 183c36 57.333 87.333 86 154 86c48 0 98 -15 150 -45l128 -84c50.667 -30.667 96.667 -46 138 -46c16.667 0 29 15.333 37 46c5.33301 20 8 37 8 51v28h149zM1155 -3l-327.996 -0.00195312c-0.666992 4.66699 -2.83398 17.5 -6.50098 38.5
s-6 37.167 -7 48.5s-2.16699 23.5 -3.5 36.5s-2 25.5 -2 37.5c-10.667 -18 -27.334 -38.333 -50.001 -61c-36 -36 -74.667 -64 -116 -84c-58 -28 -120.333 -42 -187 -42c-102 0 -185.667 26 -251 78c-73.333 58.667 -110 142 -110 250c0 90.667 28.667 166 86 226
c49.333 51.333 119.333 91.333 210 120c72.667 22.667 160 39 262 49l143 14v120c0 30 -16.333 55.333 -49 76s-68.334 31 -107.001 31c-58 0 -103.833 -14.333 -137.5 -43s-53.834 -68 -60.501 -118l-314 27l4 20c18.667 114 85.667 200.667 201 260
c96.667 50 210 75 340 75c111.333 0 203.333 -16 276 -48c59.333 -26 104.666 -62 135.999 -108c24 -35.333 38 -72.666 42 -111.999l9 -95v-669c0 -30 3 -58.333 9 -85c0.666992 -5.33301 1.66699 -10.666 3 -15.999c0.666992 -1.33301 3.33398 -10 8.00098 -26z
M798.005 535.998l-102 -9.00195c-61.333 -5.33301 -116.666 -24.666 -165.999 -57.999c-56.667 -38.667 -85 -84 -85 -136c0 -16 3.16699 -33.167 9.5 -51.5s16.166 -36.5 29.499 -54.5c10.667 -15.333 24.5 -26.666 41.5 -33.999s35.5 -11 55.5 -11
c52.667 0 100.667 20.333 144 61c48 44.667 72 99.667 72 165z" />
    <glyph glyph-name="adieresis" unicode="&#xe4;" horiz-adv-x="1272" 
d="M607 1394c0 -36.667 -12.168 -68.833 -36.501 -96.5s-54.166 -41.5 -89.499 -41.5s-65.666 13 -90.999 39s-38 57 -38 93c0 34.667 12.167 64.834 36.5 90.501s53.166 38.5 86.499 38.5c36 0 67 -11.833 93 -35.5s39 -52.834 39 -87.501zM968.999 1388
c0 -35.333 -11.334 -66.667 -34.001 -94s-50.667 -41 -84 -41c-35.333 0 -66.5 11.5 -93.5 34.5s-40.5 51.833 -40.5 86.5c0 36 11.833 67.5 35.5 94.5s52.834 40.5 87.501 40.5c34 0 64 -11.667 90 -35s39 -52 39 -86zM1181 -3l-327.993 0.000976562
c-0.666992 4.66699 -2.83398 17.5 -6.50098 38.5s-6 37.167 -7 48.5s-2.16699 23.5 -3.5 36.5s-2 25.5 -2 37.5c-10.667 -18 -27.334 -38.333 -50.001 -61c-36 -36 -74.667 -64 -116 -84c-58 -28 -120.333 -42 -187 -42c-102.667 0 -186.667 26 -252 78
c-73.333 58.667 -110 142 -110 250c0 91.333 28.667 166.666 86 225.999c49.333 51.333 119.666 91.333 210.999 120c72.667 22.667 160 39 262 49l143 14v120c0 30 -16.333 55.333 -49 76s-68.334 31 -107.001 31c-58 0 -103.833 -14.333 -137.5 -43
s-53.834 -68 -60.501 -118l-314 27l3 20c18.667 113.333 86 200 202 260c96.667 50 210 75 340 75c111.333 0 203.333 -16 276 -48c59.333 -26 104.666 -62 135.999 -108c24 -35.333 38 -72.666 42 -111.999l8 -95v-669c0 -16.667 0.666992 -30.334 2 -41.001
s3.66602 -25.334 6.99902 -44.001c1.33301 -8 3.33301 -15.667 6 -23s4.66699 -13.666 6 -18.999zM824.005 536.001l-102 -9.00195c-61.333 -5.33301 -116.666 -24.666 -165.999 -57.999c-56.667 -38.667 -85 -84 -85 -136c0 -16 3.16699 -33.167 9.5 -51.5
s16.166 -36.5 29.499 -54.5c10.667 -15.333 24.5 -26.666 41.5 -33.999s35.5 -11 55.5 -11c52.667 0 100.667 20.333 144 61c48 44.667 72 99.667 72 165z" />
    <glyph glyph-name="aring" unicode="&#xe5;" horiz-adv-x="1258" 
d="M904 1507c0 -62.667 -20.8311 -116.998 -62.498 -162.998s-92.834 -69 -153.501 -69c-67.333 0 -126 22.667 -176 68s-75 100.666 -75 165.999c0 62.667 22.667 117 68 163s99.666 69 162.999 69c64.667 0 120.167 -22.833 166.5 -68.5s69.5 -100.834 69.5 -165.501z
M1156 -2.99805l-326.998 0.00292969l-7 37.5c-2 11 -4 24.833 -6 41.5s-3.5 30.167 -4.5 40.5s-1.5 24.166 -1.5 41.499c-11.333 -18.667 -28 -39 -50 -61c-36 -35.333 -75 -63.333 -117 -84c-58 -28 -120.333 -42 -187 -42c-102 0 -185.667 26 -251 78
c-73.333 58.667 -110 142 -110 250c0 91.333 28.667 166.666 86 225.999c49.333 51.333 119.666 91.333 210.999 120c72.667 22.667 160 39 262 49l142 14v120c0 30 -16.333 55.333 -49 76s-68.334 31 -107.001 31c-58 0 -103.833 -14.333 -137.5 -43s-53.5 -68 -59.5 -118
l-314 27l3 20c18.667 114 85.667 200.667 201 260c96.667 50 210.334 75 341.001 75c111.333 0 203.333 -16 276 -48c60 -26.667 105.333 -62.667 136 -108c24 -35.333 37.667 -72.666 41 -111.999l9 -95v-669c0 -16.667 0.666992 -30.334 2 -41.001
s3.66602 -25.334 6.99902 -44.001zM842.004 1518c0 45.333 -17.168 83.832 -51.501 115.499s-75.166 47.5 -122.499 47.5s-87.333 -17.333 -120 -52s-49 -76 -49 -124c0 -46.667 17.833 -86.167 53.5 -118.5s77.5 -48.5 125.5 -48.5c46 0 84.833 17.833 116.5 53.5
s47.5 77.834 47.5 126.501zM800.003 536.004l-103 -9c-60.667 -4.66699 -116 -24.334 -166 -59.001c-56.667 -38.667 -85 -84 -85 -136c0 -33.333 13 -68.333 39 -105c10.667 -15.333 24.5 -26.666 41.5 -33.999s35.5 -11 55.5 -11c52.667 0 100.667 20.333 144 61
c48 44.667 72 99.667 72 165z" />
    <glyph glyph-name="ae" unicode="&#xe6;" horiz-adv-x="1962" 
d="M1804 510l-728 0.000976562v-98c0 -54.667 22.167 -102.5 66.5 -143.5s95.5 -61.5 153.5 -61.5c52 0 98.667 19 140 57c34.667 32 52 61 52 87v38l313 -20l-9 -26c-37.333 -113.333 -97 -201.666 -179 -264.999c-92 -71.333 -207 -107 -345 -107c-76 0 -140 10 -192 30
c-43.333 16.667 -83.333 42 -120 76c-10 9.33301 -39.667 42 -89 98c-30.667 -51.333 -88.334 -99 -173.001 -143c-71.333 -37.333 -143.666 -56 -216.999 -56c-102 0 -185.667 26 -251 78c-73.333 58.667 -110 142 -110 250c0 91.333 28.667 166.666 86 225.999
c49.333 51.333 119.666 91.333 210.999 120c72.667 22.667 160 39 262 49l142 14v120c0 30 -16.333 55.333 -49 76s-68.334 31 -107.001 31c-58 0 -103.833 -14.333 -137.5 -43s-53.5 -68 -59.5 -118l-314 27l3 20c18.667 114 85.667 200.667 201 260
c96.667 50 210.334 75 341.001 75c76 0 134.333 -9.66699 175 -29c10 -4.66699 41.667 -27 95 -67c44.667 36.667 88.334 63 131.001 79c48.667 18.667 104.667 28 168 28c156.667 0 285.667 -54.333 387 -163s152 -246.334 152 -413.001zM1465 710.001
c2.66699 12.667 4 27 4 43c0 53.333 -16.333 98.666 -49 135.999c-35.333 40 -81.333 60 -138 60c-54.667 0 -103.667 -20.667 -147 -62s-65 -89 -65 -143c0 -11.333 1 -22.666 3 -33.999h392zM821 541.001l-103 -9c-60.667 -4.66699 -116 -24.334 -166 -59.001
c-56.667 -38.667 -85 -84 -85 -136c0 -33.333 13 -68.333 39 -105c10.667 -15.333 24.5 -26.666 41.5 -33.999s35.5 -11 55.5 -11c52.667 0 100.667 20.333 144 61c48 44.667 72 99.667 72 165z" />
    <glyph glyph-name="ccedilla" unicode="&#xe7;" horiz-adv-x="1240" 
d="M1144 721l-307.997 -14c0 62 -12 109.667 -36 143c-28.667 39.333 -73.667 59 -135 59c-74.667 0 -128.667 -39.667 -162 -119c-25.333 -60 -38 -139 -38 -237c0 -68.667 1.66699 -115 5 -139c7.33301 -51.333 23 -90 47 -116c30 -32 75.333 -48 136 -48
c55.333 0 99.666 19.667 132.999 59c31.333 36.667 47 82.334 47 137.001l308 -19c0 -44.667 -7.33301 -86.667 -22 -126c-10.667 -27.333 -30.334 -66 -59.001 -116c-36.667 -60.667 -91.167 -110.834 -163.5 -150.501s-151.5 -59.5 -237.5 -59.5l-20 -65l82 -3
c31.333 0 61.166 -16.5 89.499 -49.5s42.5 -68.5 42.5 -106.5c0 -6.66699 -0.333008 -11.667 -1 -15c-6 -51.333 -33.333 -93 -82 -125c-46 -30 -98.667 -45 -158 -45c-43.333 0 -83.666 9 -120.999 27l-90 45l39 84l93 -28c26 -8 51 -12 75 -12
c20.667 0 37.5 3.66699 50.5 11s20.167 16.166 21.5 26.499s2 18.5 2 24.5c0 27.333 -14 48 -42 62c-22.667 11.333 -51 17 -85 17h-64l53 157l-84 20c-114 26.667 -204.667 93.334 -272 200.001c-64 101.333 -96 219 -96 353c0 168 45.333 308.333 136 421
c99.333 123.333 234.666 185 405.999 185c166.667 0 290.667 -41 372 -123c66 -66.667 112 -171.667 138 -315z" />
    <glyph glyph-name="egrave" unicode="&#xe8;" horiz-adv-x="1276" 
d="M916 1372l-54 -132l-504 184l68 187zM1187 520l-728 1v-99c0 -54.667 22.167 -102.5 66.5 -143.5s95.5 -61.5 153.5 -61.5c52 0 98.667 19 140 57c34.667 32 52 61 52 87v38l313 -20l-9 -26c-37.333 -113.333 -97 -201.666 -179 -264.999
c-92 -71.333 -207 -107 -345 -107c-158.667 0 -291 56.667 -397 170c-102.667 110 -154 243.333 -154 400c0 168 45 311.333 135 430c102 134 239.333 201 412 201c156.667 0 285.667 -54.333 387 -163s152 -246.334 152 -413.001zM848 720c2.66699 12.667 4 27 4 43
c0 53.333 -16.333 98.666 -49 135.999c-35.333 40 -81.333 60 -138 60c-54.667 0 -103.667 -20.667 -147 -62s-65 -89 -65 -143c0 -11.333 1 -22.666 3 -33.999h392z" />
    <glyph glyph-name="eacute" unicode="&#xe9;" horiz-adv-x="1294" 
d="M934 1464l-513 -191l-58 134l496 244zM1194 526h-728v-98c0 -54 22 -101.667 66 -143s95 -62 153 -62c52 0 98.667 19 140 57c35.333 32.667 53 61.667 53 87l-1 38l313 -19l-9 -27c-37.333 -113.333 -97 -201.666 -179 -264.999c-92 -71.333 -207 -107 -345 -107
c-158 0 -290 56.667 -396 170c-102.667 110 -154 243.333 -154 400c0 168 45 311.333 135 430c102 134 239.333 201 412 201c156 0 284.667 -54.333 386 -163s152 -246.334 152 -413.001zM838 732c2.66699 12.667 4 26.667 4 42c0 53.333 -16.333 98.666 -49 135.999
c-35.333 40.667 -81.333 61 -138 61c-54.667 0 -103.667 -20.667 -147 -62s-65 -89 -65 -143c0 -11.333 1 -22.666 3 -33.999h392z" />
    <glyph glyph-name="ecircumflex" unicode="&#xea;" horiz-adv-x="1282" 
d="M1070 1257h-241l-180 121l-179 -120h-238l414 334zM1181 520l-728 -1v-97c0 -54 22 -101.667 66 -143s95 -62 153 -62c52 0 98.667 19 140 57c35.333 32.667 53 61.667 53 87l-1 38l313 -20l-9 -26c-37.333 -113.333 -97 -201.666 -179 -264.999
c-92 -71.333 -207 -107 -345 -107c-158 0 -290 56.667 -396 170c-102.667 110 -154 243.333 -154 400c0 168 45 311.333 135 430c102 134 239.333 201 412 201c156 0 284.667 -54.333 386 -163s152 -246.334 152 -413.001zM842 720
c2.66699 12.667 3.99902 26.332 3.99902 40.999c0 54 -16.333 99.667 -49 137c-35.333 40.667 -81.666 61 -138.999 61c-54.667 0 -103.5 -20.833 -146.5 -62.5s-64.5 -89.167 -64.5 -142.5c0 -11.333 1 -22.666 3 -33.999h392z" />
    <glyph glyph-name="edieresis" unicode="&#xeb;" horiz-adv-x="1284" 
d="M587 1455c0 -36.667 -12.1689 -68.8311 -36.502 -96.498s-54.166 -41.5 -89.499 -41.5s-65.666 13 -90.999 39s-38 57 -38 93c0 35.333 12 65.666 36 90.999s53 38 87 38c36 0 67 -11.833 93 -35.5s39 -52.834 39 -87.501zM948.998 1449
c0 -35.333 -11.334 -66.667 -34.001 -94s-50.667 -41 -84 -41c-35.333 0 -66.5 11.5 -93.5 34.5s-40.5 51.833 -40.5 86.5c0 36 11.833 67.5 35.5 94.5s52.834 40.5 87.501 40.5c34 0 64 -11.667 90 -35s39 -52 39 -86zM1181 533.002l-727.999 1v-98
c0 -54.667 22 -102.667 66 -144s95 -62 153 -62c52 0 98.667 19 140 57c35.333 32.667 53 61.667 53 87l-1 38l313 -19l-9 -27c-38 -113.333 -97.667 -201.666 -179 -264.999c-92 -71.333 -207 -107 -345 -107c-158 0 -290 56.667 -396 170
c-102.667 110 -154 243.667 -154 401c0 168.667 45 312 135 430c101.333 133.333 238.666 200 411.999 200c156 0 284.667 -54.333 386 -163s152 -246.334 152 -413.001zM841.998 734.002c2.66699 12.667 3.99902 26.332 3.99902 40.999c0 54 -16.333 99.667 -49 137
c-35.333 40.667 -81.666 61 -138.999 61c-54.667 0 -103.5 -20.833 -146.5 -62.5s-64.5 -89.167 -64.5 -142.5c0 -11.333 1 -22.666 3 -33.999h392z" />
    <glyph glyph-name="igrave" unicode="&#xec;" horiz-adv-x="721" 
d="M656 1387l-84 -122l-474 173l68 188zM543 -2h-336v1155h336v-1155z" />
    <glyph glyph-name="iacute" unicode="&#xed;" horiz-adv-x="720" 
d="M632 1496l-513 -191l-59 134l496 244zM542 -7h-337v1160h337v-1160z" />
    <glyph glyph-name="icircumflex" unicode="&#xee;" horiz-adv-x="715" 
d="M787 1288h-241l-180 121l-179 -120h-238l414 334zM539 -4h-337v1155h337v-1155z" />
    <glyph glyph-name="idieresis" unicode="&#xef;" horiz-adv-x="715" 
d="M321 1429c0 -36 -12.1689 -67.832 -36.502 -95.499s-54.166 -41.5 -89.499 -41.5s-65.666 13 -90.999 39s-38 57 -38 93c0 35.333 12 65.666 36 90.999s53 38 87 38c36 0 67 -11.833 93 -35.5s39 -53.167 39 -88.5zM682.998 1424c0 -35.333 -11.333 -66.668 -34 -94.001
s-50.667 -41 -84 -41c-36 0 -67.5 11.5 -94.5 34.5s-40.5 51.833 -40.5 86.5c0 36 12 67.333 36 94s53.333 40 88 40c34 0 64 -11.667 90 -35s39 -51.666 39 -84.999zM553.998 -2.00098h-336v1155h336v-1155z" />
    <glyph glyph-name="ntilde" unicode="&#xf1;" horiz-adv-x="1171" 
d="M967 1488c0 -104 -18.666 -176.668 -55.999 -218.001c-31.333 -34.667 -77.333 -52 -138 -52c-28.667 0 -69 13.5 -121 40.5l-150 80.5c-54.667 28.667 -93.334 43 -116.001 43c-20 0 -35.333 -5.33301 -46 -16c-13.333 -13.333 -20 -34 -20 -62v-35h-157
c0 72.667 15.333 133.334 46 182.001c36 57.333 87.333 86 154 86c48 0 98 -15 150 -45l128 -83c50.667 -30.667 96.667 -46 138 -46c16.667 0 29 15.333 37 46c5.33301 19.333 8 36.333 8 51l-1 28h144zM1081 -1.00098l-329.002 0.000976562l-1 724
c0 49.333 -10.667 88.666 -32 117.999c-25.333 34.667 -64.666 52 -117.999 52c-58 0 -103 -30 -135 -90c-26.667 -50.667 -40 -112.334 -40 -185.001l1 -619h-329l-1 1135h314v-198c30 70.667 71.833 124 125.5 160s120.834 54 201.501 54
c96.667 0 171.667 -20.667 225 -62c46 -35.333 78.333 -87.666 97 -156.999c14 -52 21 -120 21 -204v-728z" />
    <glyph glyph-name="ograve" unicode="&#xf2;" horiz-adv-x="1267" 
d="M938 1378l-54 -132l-504 184l67 187zM1169 585c0 -176.667 -49.332 -320.831 -147.999 -432.498s-225.667 -167.5 -381 -167.5c-176.667 0 -312.334 60 -407.001 180c-84.667 107.333 -127 245.333 -127 414c0 165.333 42.333 300.666 127 405.999
c94.667 118 228.667 177 402 177c174 0 308.667 -57.667 404 -173c86.667 -104.667 130 -239.334 130 -404.001zM823.001 548.003c0 74 -3.00293 133.669 -9.00293 179.002c-9.33301 69.333 -25.666 121.333 -48.999 156c-29.333 44 -71.666 66 -126.999 66
c-75.333 0 -127.666 -33.667 -156.999 -101c-22 -50.667 -33 -126.334 -33 -227.001c0 -77.333 3 -139 9 -185c9.33301 -70.667 26 -124.334 50 -161.001c30 -46 72.333 -69 127 -69c79.333 0 133 38 161 114c18.667 50 28 126 28 228z" />
    <glyph glyph-name="oacute" unicode="&#xf3;" horiz-adv-x="1264" 
d="M906 1419l-513 -191l-58 134l495 244zM1163 580c0 -177.333 -49.333 -321.832 -148 -433.499s-226 -167.5 -382 -167.5c-176 0 -311.667 60.333 -407 181c-84.667 107.333 -127 245 -127 413c0 166 42.333 301.667 127 407c94.667 118 229 177 403 177
s308.667 -57.667 404 -173c86.667 -104.667 130 -239.334 130 -404.001zM816 543.001c0 78.667 -2.66699 138.333 -8 179c-8.66699 68 -25.334 120 -50.001 156c-29.333 44 -71.666 66 -126.999 66c-75.333 0 -127.666 -34 -156.999 -102c-21.333 -50 -32 -125.333 -32 -226
c0 -78 3 -140 9 -186c9.33301 -71.333 26 -125.333 50 -162c29.333 -45.333 71.666 -68 126.999 -68s98 18.333 128 55c24 29.333 40.667 73 50 131c6.66699 42 10 94.333 10 157z" />
    <glyph glyph-name="ocircumflex" unicode="&#xf4;" horiz-adv-x="1253" 
d="M1035 1256h-241l-180 121l-179 -120h-238l414 334zM1163 579c0 -177.333 -49.333 -321.832 -148 -433.499s-226 -167.5 -382 -167.5c-176 0 -311.667 60 -407 180c-84.667 106.667 -127 244.667 -127 414c0 165.333 42.333 300.666 127 405.999
c94.667 118 229 177 403 177s308.667 -57.667 404 -173c86.667 -104.667 130 -239 130 -403zM816 541.001c0 78.667 -2.66797 138.334 -8.00098 179.001c-8.66699 68.667 -25.334 121 -50.001 157c-29.333 44 -71.666 66 -126.999 66c-75.333 0 -127.666 -34 -156.999 -102
c-21.333 -50 -32 -125.667 -32 -227c0 -77.333 3 -139 9 -185c9.33301 -70.667 26 -124.334 50 -161.001c30 -46 72.333 -69 127 -69c79.333 0 133 38 161 114c18 48 27 124 27 228z" />
    <glyph glyph-name="otilde" unicode="&#xf5;" horiz-adv-x="1259" 
d="M1023 1488c0 -80 -11.667 -140.999 -35 -182.999c-32 -58 -87.333 -87 -166 -87c-28.667 0 -68.834 13.5 -120.501 40.5l-149.5 80.5c-54.667 28.667 -93.667 43 -117 43c-20 0 -35.833 -5.83301 -47.5 -17.5s-17.5 -31.834 -17.5 -60.501v-35h-158
c6.66699 78 23.334 139 50.001 183c34.667 57.333 85 86 151 86c48 0 98 -15 150 -45l128 -84c50.667 -30.667 96.667 -46 138 -46c16.667 0 29 15.333 37 46c5.33301 19.333 8 36.333 8 51l-1 28h150zM1184 577.001c0 -177.333 -49.332 -321.831 -147.999 -433.498
s-226 -167.5 -382 -167.5c-176 0 -311.667 60.333 -407 181c-84.667 107.333 -127 245 -127 413c0 165.333 42.333 300.666 127 405.999c95.333 118.667 229.666 178 402.999 178c174 0 308.667 -57.667 404 -173c86.667 -104.667 130 -239.334 130 -404.001z
M837.001 539.003c0 79.333 -2.66797 139.333 -8.00098 180c-8.66699 67.333 -25.334 119.333 -50.001 156c-29.333 44 -71.666 66 -126.999 66c-75.333 0 -127.666 -34 -156.999 -102c-22 -50.667 -33 -126 -33 -226c0 -78.667 3 -140.667 9 -186
c9.33301 -70.667 26.333 -124.667 51 -162c30 -45.333 72.333 -68 127 -68c55.333 0 98 18.333 128 55c24 29.333 40.667 73 50 131c6.66699 41.333 10 93.333 10 156z" />
    <glyph glyph-name="odieresis" unicode="&#xf6;" horiz-adv-x="1257" 
d="M570 1424c0 -36 -12.1689 -67.833 -36.502 -95.5s-54.166 -41.5 -89.499 -41.5s-65.666 13 -90.999 39s-38 56.667 -38 92c0 34.667 12.167 64.834 36.5 90.501s53.5 38.5 87.5 38.5c35.333 0 66 -11.833 92 -35.5s39 -52.834 39 -87.501zM931.998 1418
c0 -35.333 -11.168 -66.5 -33.501 -93.5s-50.5 -40.5 -84.5 -40.5c-35.333 0 -66.5 11.5 -93.5 34.5s-40.5 51.5 -40.5 85.5c0 36 11.833 67.5 35.5 94.5s52.834 40.5 87.501 40.5c34 0 64 -11.667 90 -35s39 -52 39 -86zM1169 587
c0 -176.667 -49.333 -320.999 -148 -432.999s-225.667 -168 -381 -168c-176 0 -311.667 60.333 -407 181c-84.667 107.333 -127 245 -127 413c0 164.667 42.333 300 127 406c95.333 118.667 229.333 178 402 178c174 0 308.667 -57.667 404 -173
c86.667 -104.667 130 -239.334 130 -404.001zM822.997 549.001c0 74.667 -3.00195 134.667 -9.00195 180c-9.33301 69.333 -25.666 121.333 -48.999 156c-29.333 44 -71.666 66 -126.999 66c-75.333 0 -127.666 -34 -156.999 -102c-22 -50.667 -33 -126 -33 -226
c0 -78 3 -140 9 -186c9.33301 -71.333 26 -125.333 50 -162c29.333 -45.333 71.666 -68 126.999 -68c79.333 0 133 38 161 114c18.667 50 28 126 28 228z" />
    <glyph glyph-name="divide" unicode="&#xf7;" horiz-adv-x="1370" 
d="M834 1015c0 -35.333 -11.668 -66 -35.001 -92s-52 -39 -86 -39c-35.333 0 -65.666 13.333 -90.999 40s-38 58 -38 94c0 34 12 62.667 36 86s53 35 87 35c34.667 0 64.5 -12.167 89.5 -36.5s37.5 -53.5 37.5 -87.5zM1305 645h-1175v129h1175v-129zM830.999 396
c0 -33.333 -12.168 -61.834 -36.501 -85.501s-53.5 -35.5 -87.5 -35.5s-63 13 -87 39s-36 57 -36 93c0 32 12 59.667 36 83s52.333 35 85 35c34.667 0 64.334 -12.667 89.001 -38s37 -55.666 37 -90.999z" />
    <glyph glyph-name="oslash" unicode="&#xf8;" horiz-adv-x="1258" 
d="M1212 1188l-132.001 -176.997c42 -54.667 74.333 -116.334 97 -185.001s34 -141.334 34 -218.001c0 -182 -51 -330.667 -153 -446s-232.667 -173 -392 -173c-56.667 0 -109.667 6.33301 -159 19s-93.666 30.667 -132.999 54l-45 -60h-212l129 172
c-44 55.333 -76.667 119.333 -98 192s-32 151 -32 235c0 170 43.667 309.333 131 418c98 122 236.333 183 415 183c58 0 111.5 -6.83301 160.5 -20.5s93.833 -32.834 134.5 -57.501l48 64h207zM797.999 912.003c-15.333 22.667 -33.832 40.001 -55.499 52.001
s-47.834 18 -78.501 18c-78 0 -132 -34.667 -162 -104c-22 -50.667 -33 -128.334 -33 -233.001c0 -14 -0.166992 -28 -0.5 -42s-0.5 -28 -0.5 -42v-36.5c0 -9.66699 1.33301 -26.167 4 -49.5zM855 569.004v140.001l-322 -433c29.333 -39.333 72 -59 128 -59
c80.667 0 135.667 39 165 117c19.333 51.333 29 129.666 29 234.999z" />
    <glyph glyph-name="ugrave" unicode="&#xf9;" horiz-adv-x="1179" 
d="M915 1367l-54 -133l-503 184l67 188zM1088 -1l-313.001 -0.000976562v195c-60 -142 -175 -213 -345 -213c-90 0 -166.833 29.833 -230.5 89.5s-95.5 133.167 -95.5 220.5v863h335v-751c0 -50.667 8 -87.667 24 -111c19.333 -28.667 53.333 -43 102 -43
c62.667 0 111.334 24 146.001 72c28 38.667 42 83.334 42 134.001v698h335v-1154z" />
    <glyph glyph-name="uacute" unicode="&#xfa;" horiz-adv-x="1170" 
d="M859 1431l-514 -191l-58 134l496 244zM1081 -3l-312.001 -0.000976562v195c-60 -142 -175 -213 -345 -213c-90 0 -167 30 -231 90s-96 133.333 -96 220v864h336l-1 -752c0 -50 8 -86.667 24 -110c19.333 -28.667 53.333 -43 102 -43c62.667 0 111.334 23.667 146.001 71
c28 38.667 42 83.334 42 134.001v698h335v-1154z" />
    <glyph glyph-name="ucircumflex" unicode="&#xfb;" horiz-adv-x="1178" 
d="M1003 1292h-242l-179 121l-180 -120h-237l414 334zM1081 -1l-312.001 -0.000976562v195c-60 -142 -175 -213 -345 -213c-90 0 -167 30 -231 90s-96 133.333 -96 220v863h336l-1 -751c0 -50.667 8 -87.667 24 -111c19.333 -28.667 53.333 -43 102 -43
c62.667 0 111.334 24 146.001 72c28 38.667 42 83.334 42 134.001v698h335v-1154z" />
    <glyph glyph-name="udieresis" unicode="&#xfc;" horiz-adv-x="1176" 
d="M541 1436c0 -36.667 -12.1689 -68.834 -36.502 -96.501s-54.166 -41.5 -89.499 -41.5s-65.666 13 -90.999 39s-38 57 -38 93c0 34.667 12.167 64.834 36.5 90.501s53.5 38.5 87.5 38.5c35.333 0 66 -12 92 -36s39 -53 39 -87zM902.998 1430
c0 -35.333 -11.168 -66.5 -33.501 -93.5s-50.5 -40.5 -84.5 -40.5c-35.333 0 -66.5 11.5 -93.5 34.5s-40.5 51.5 -40.5 85.5c0 36 11.833 67.5 35.5 94.5s52.834 40.5 87.501 40.5c34 0 64 -11.667 90 -35s39 -52 39 -86zM1081 -1l-312.001 -0.000976562v195
c-60 -142 -175 -213 -345 -213c-90 0 -167 30 -231 90s-96 133.333 -96 220v863h336l-1 -751c0 -50.667 8 -87.667 24 -111c19.333 -28.667 53.333 -43 102 -43c62.667 0 111.334 24 146.001 72c28 38.667 42 83.334 42 134.001v698h335v-1154z" />
    <glyph glyph-name="ydieresis" unicode="&#xff;" horiz-adv-x="1205" 
d="M590 1406c0 -36 -12.168 -67.8311 -36.501 -95.498s-54.166 -41.5 -89.499 -41.5s-65.666 13 -90.999 39s-38 56.667 -38 92s12 65.666 36 90.999s53 38 87 38c35.333 0 66.166 -11.833 92.499 -35.5s39.5 -52.834 39.5 -87.501zM951.999 1400
c0 -35.333 -11.167 -66.501 -33.5 -93.501s-50.5 -40.5 -84.5 -40.5c-36 0 -67.5 11.5 -94.5 34.5s-40.5 51.5 -40.5 85.5c0 36.667 11.833 68.334 35.5 95.001s53.167 40 88.5 40c34 0 64 -11.667 90 -35s39 -52 39 -86zM1097 1151l-387 -1209
c-27.333 -85.333 -55 -147 -83 -185c-24 -32.667 -55.667 -61.334 -95 -86.001c-30.667 -19.333 -69.667 -33.333 -117 -42c-36 -6.66699 -74.667 -10 -116 -10c-15.333 0 -27.833 0.333008 -37.5 1s-20.5 1.66699 -32.5 3l-78 8v254l44 -2c18 0 37.667 -1 59 -3
c50 -4.66699 79.333 -7 88 -7h13c4.66699 0 11.667 0.666992 21 2c32 4 59.333 19 82 45s34 54.333 34 85c0 12 -2 24 -6 36l-405 1109h354l213 -673l203 674h246z" />
    <glyph glyph-name="OE" unicode="&#x152;" horiz-adv-x="2227" 
d="M2152 0l-1095 -0.000976562v44c-40 -18.667 -82.667 -33 -128 -43s-94.666 -15 -147.999 -15c-213.333 0 -381 83 -503 249c-109.333 148.667 -164 333.334 -164 554.001c0 210.667 60.667 390 182 538c129.333 158 296.666 237 501.999 237
c46 0 92.333 -6.33301 139 -19c38 -10 78 -25.333 120 -46v39h1095v-308h-735v-306h574v-296h-575l-5 -37v-283h741v-308zM1050 791.999c0 85.333 -5.99902 158.002 -17.999 218.002c-16 79.333 -42 140 -78 182c-43.333 50.667 -101.666 76 -174.999 76
c-74.667 0 -135.334 -28.333 -182.001 -85c-38 -46.667 -66 -111.667 -84 -195c-14 -66 -21 -138.667 -21 -218s7.66699 -152 23 -218c19.333 -82.667 48.333 -147 87 -193c47.333 -56 107.333 -84 180 -84c73.333 0 131.333 27.667 174 83
c35.333 45.333 60.666 111.666 75.999 198.999c12 67.333 18 145.666 18 234.999z" />
    <glyph glyph-name="oe" unicode="&#x153;" horiz-adv-x="1995" 
d="M1913 520h-729.998c0 -12 0.166992 -27.167 0.5 -45.5s0.833008 -35.833 1.5 -52.5c0 -54.667 22.167 -102.5 66.5 -143.5s95.5 -61.5 153.5 -61.5c52 0 98.667 19 140 57c34.667 32 52 61 52 87v38l313 -20l-9 -26c-37.333 -113.333 -97 -201.666 -179 -264.999
c-92 -71.333 -207 -107 -345 -107c-72 0 -138.333 11.5 -199 34.5s-115.334 56.833 -164.001 101.5c-49.333 -44.667 -104.666 -78.834 -165.999 -102.501s-127.333 -35.5 -198 -35.5c-182 0 -322 62 -420 186c-86.667 110 -130 252 -130 426c0 170 43.667 309.333 131 418
c98 122 236.333 183 415 183c80 0 152 -12.667 216 -38c60 -23.333 112.667 -57.666 158 -102.999c45.333 42.667 97.166 75.167 155.499 97.5s124.166 33.5 197.499 33.5c156.667 0 285.667 -54.333 387 -163s152 -246.334 152 -413.001zM1574 720
c2.66699 12.667 4 27 4 43c0 53.333 -16.333 98.666 -49 135.999c-35.333 40 -81.333 60 -138 60c-54.667 0 -103.667 -20.667 -147 -62s-65 -89 -65 -143c0 -11.333 1 -22.666 3 -33.999h392zM839.002 559c0 136.667 -14.666 238.335 -43.999 305.002
c-31.333 72 -80.333 108 -147 108c-78 0 -132 -34.667 -162 -104c-22 -50.667 -33 -128.334 -33 -233.001c0 -79.333 3 -143 9 -191c9.33301 -74 25.666 -129.667 48.999 -167c29.333 -46.667 71.333 -70 126 -70c12.667 -0.666992 20.667 -1 24 -1
c70 0 119.667 43.333 149 130c19.333 57.333 29 131.666 29 222.999z" />
    <glyph glyph-name="Ydieresis" unicode="&#x178;" horiz-adv-x="1386" 
d="M1349 1538l-484 -889v-649h-362v642l-466 896h412l286 -587l291 587h323zM681 1780c0 -36 -12.168 -67.8311 -36.501 -95.498s-54.166 -41.5 -89.499 -41.5s-65.666 13 -90.999 39s-38 56.667 -38 92s12 65.666 36 90.999s53 38 87 38
c35.333 0 66.166 -11.833 92.499 -35.5s39.5 -52.834 39.5 -87.501zM1043 1774c0 -35.333 -11.167 -66.501 -33.5 -93.501s-50.5 -40.5 -84.5 -40.5c-36 0 -67.5 11.5 -94.5 34.5s-40.5 51.5 -40.5 85.5c0 36.667 11.833 68.334 35.5 95.001s53.167 40 88.5 40
c34 0 64 -11.667 90 -35s39 -52 39 -86z" />
    <glyph glyph-name="florin" unicode="&#x192;" horiz-adv-x="1137" 
d="M1044 1594c-18 -50.667 -53.667 -76 -107 -76c-12 0 -23.667 5 -35 15c-18 16 -29.5 25.333 -34.5 28s-10.833 4 -17.5 4c-28 0 -48.667 -53.333 -62 -160c-20.667 -164 -33.667 -256.333 -39 -277l-11 -43h206l-11 -85h-218l-125 -624c-18 -92 -38.667 -175 -62 -249
c-35.333 -113.333 -74.333 -202.333 -117 -267c-54.667 -83.333 -114 -125 -178 -125c-17.333 0 -33.5 2.33301 -48.5 7s-28.5 14.5 -40.5 29.5s-18 30.833 -18 47.5c0 6.66699 1 13 3 19c8 23.333 20.167 41.833 36.5 55.5s36.166 20.5 59.499 20.5c18 0 32.333 -9 43 -27
s19.5 -28 26.5 -30s11.833 -3 14.5 -3c23.333 0 44.333 24.667 63 74c14.667 38.667 29.334 95.334 44.001 170.001l34 184l144 720h-226l5 85h253l11 56c20 95.333 42 178 66 248c31.333 91.333 65.333 161.333 102 210c44.667 59.333 93 89 145 89
c24 0 46.167 -7.83301 66.5 -23.5s30.5 -33.834 30.5 -54.501c0 -6 -1 -12 -3 -18z" />
    <glyph glyph-name="summation" unicode="&#x3a3;" horiz-adv-x="1613" 
d="M1524 304c-16.667 -50 -29.001 -90.666 -37.001 -121.999s-16 -70.333 -24 -117s-13.833 -85.334 -17.5 -116.001s-5.5 -66 -5.5 -106l-148 28h-1193l739 814l-726 906l135 -13h1129l3 -333h-44c0 39.333 -5.66699 73.166 -17 101.499s-31 55 -59 80
s-59.333 41.5 -94 49.5c-24 5.33301 -61 8 -111 8h-610l587 -707l-628 -706h837c28 0 51.833 3.83301 71.5 11.5s42.167 20.834 67.5 39.501c32.667 24.667 57.334 51.5 74.001 80.5s25 62.833 25 101.5h46z" />
    <glyph glyph-name="Omega" unicode="&#x3a9;" horiz-adv-x="1656" 
d="M1572 -4l-611.002 0.000976562l30 303c98 44 171.333 109.333 220 196c46 81.333 69 179.333 69 294c0 92 -10.333 167.333 -31 226c-25.333 72 -68 127 -128 165c-68 42.667 -159.667 64 -275 64c-155.333 0 -270.666 -45 -345.999 -135
c-64.667 -77.333 -97 -184 -97 -320c0 -114 23 -212 69 -294c48.667 -86 122 -151.333 220 -196l29 -303h-611v319h40c0 -16 1.16699 -29 3.5 -39s7.5 -21 15.5 -33c12 -18 27.167 -31.167 45.5 -39.5s39.5 -12.5 63.5 -12.5h335v62
c-133.333 22.667 -241.166 84 -323.499 184s-123.5 218.333 -123.5 355c0 160 64.333 286.667 193 380c123.333 89.333 284.666 134 483.999 134c208 0 372.333 -45.167 493 -135.5s181 -216.5 181 -378.5c0 -136.667 -41.167 -255 -123.5 -355
s-190.166 -161.333 -323.499 -184v-62h335c25.333 0 46.5 3.83301 63.5 11.5s31.833 21.167 44.5 40.5c8 12 13.333 23.167 16 33.5s4 23.166 4 38.499h39v-319z" />
    <glyph glyph-name="pi" unicode="&#x3c0;" horiz-adv-x="1323" 
d="M1228 352l-6 -49c-10.667 -86 -40.667 -157 -90 -213c-53.333 -60.667 -119 -91 -197 -91c-68.667 0 -119.667 35.333 -153 106c-26.667 57.333 -40 133.333 -40 228c0 19.333 0.333008 34.666 1 45.999s2 28.333 4 51l52 478h-261l-89 -706
c-6.66699 -55.333 -22.334 -103.333 -47.001 -144c-28.667 -48 -62.667 -72 -102 -72h-16l-12 4c-26.667 8 -46.334 17 -59.001 27c-16.667 12.667 -28 30 -34 52c-2.66699 10.667 -4 21.667 -4 33c0 28 11.333 55 34 81c65.333 75.333 99.666 117 102.999 125l24 54
c7.33301 18 12 37 14 57l52 480h-72h-28c-19.333 0 -33 -0.5 -41 -1.5s-19.667 -4.5 -35 -10.5c-26 -10 -51.333 -29.667 -76 -59c-19.333 -23.333 -31.666 -43 -36.999 -59l-38 15l14 31c44 96 72.667 152.667 86 170c22 28.667 51.333 52.334 88 71.001
c26.667 13.333 50 22.333 70 27s45 7 75 7h805v-182h-292l-30 -533c0 -48.667 13.167 -92.167 39.5 -130.5s61.5 -57.5 105.5 -57.5c34.667 0 64.334 12 89.001 36s41.334 54.333 50.001 91l9 38h44z" />
    <glyph glyph-name="endash" unicode="&#x2013;" horiz-adv-x="1280" 
d="M1181 461h-1082v275h1082v-275z" />
    <glyph glyph-name="emdash" unicode="&#x2014;" horiz-adv-x="2253" 
d="M2158 460h-2074v273h2074v-273z" />
    <glyph glyph-name="quoteleft" unicode="&#x2018;" horiz-adv-x="516" 
d="M418 915h-321v288l190 335h126l-153 -304h158v-319z" />
    <glyph glyph-name="quoteright" unicode="&#x2019;" horiz-adv-x="515" 
d="M421 1263l-199 -346h-125l152 301h-151v320h323v-275z" />
    <glyph glyph-name="quotesinglbase" unicode="&#x201a;" horiz-adv-x="515" 
d="M421 48l-199 -346h-125l152 301h-151v320h323v-275z" />
    <glyph glyph-name="quotedblleft" unicode="&#x201c;" horiz-adv-x="932" 
d="M842 914h-321v288l190 335h126l-146 -305l151 4v-322zM418 914h-321v288l190 335h126l-153 -305l158 4v-322z" />
    <glyph glyph-name="quotedblright" unicode="&#x201d;" horiz-adv-x="945" 
d="M424 1262l-200 -347h-124l151 302h-150v319h323v-274zM855 1258l-200 -346h-125l152 301h-151v320h324v-275z" />
    <glyph glyph-name="quotedblbase" unicode="&#x201e;" horiz-adv-x="945" 
d="M424 38l-200 -347h-124l151 302h-150v319h323v-274zM855 34l-200 -346h-125l152 301h-151v320h324v-275z" />
    <glyph glyph-name="dagger" unicode="&#x2020;" horiz-adv-x="1278" 
d="M1210 877l-467.998 76.0029l16 -36c5.33301 -10.667 8.66602 -17 9.99902 -19c3.33301 -5.33301 8.33301 -11 15 -17l46 -42c-7.33301 -38.667 -12.333 -66.334 -15 -83.001c-6.66699 -36.667 -11.334 -64.334 -14.001 -83.001
c-22 -137.333 -37.167 -255.666 -45.5 -354.999s-12.5 -216 -12.5 -350l-13 -337h-136l-14 335c0 89.333 -2.66699 166.666 -8 231.999s-13.833 141 -25.5 227l-34.5 251l-23 171l43 33c7.33301 5.33301 14 11.666 20 18.999l19 23l24 31l-466 -75l25 148l-22 144l463 -80
l-82 458l155 -29l165 24l-91 -455l468 81l-29 -147z" />
    <glyph glyph-name="bullet" unicode="&#x2022;" horiz-adv-x="957" 
d="M863 586c0 -106.667 -36.833 -198.501 -110.5 -275.501s-163.167 -115.5 -268.5 -115.5c-107.333 0 -199.5 37.833 -276.5 113.5s-115.5 166.834 -115.5 273.501c0 106 37.167 196.833 111.5 272.5s164.166 113.5 269.499 113.5c106.667 0 198.334 -37.333 275.001 -112
s115 -164.667 115 -270z" />
    <glyph glyph-name="ellipsis" unicode="&#x2026;" horiz-adv-x="1547" 
d="M464 9h-345v348h345v-348zM1454 -1h-346v348h346v-348zM969 -1h-345v348h345v-348z" />
    <glyph glyph-name="trademark" unicode="&#x2122;" horiz-adv-x="1473" 
d="M628 1478h-234v-685h-73v685h-231v62h538v-62zM1379 793h-73v661l-246 -660h-66l-237 662v-663h-73l-2 743h114l235 -653l241 652h107v-742z" />
    <glyph glyph-name="partialdiff" unicode="&#x2202;" horiz-adv-x="1134" 
d="M1029 809c0 -130.667 -19.335 -259.334 -58.002 -386.001c-41.333 -136 -98 -244.667 -170 -326c-80.667 -91.333 -171.667 -137 -273 -137h-16c-8 1.33301 -14 2 -18 2c-123.333 12 -219.666 55.667 -288.999 131c-66.667 72.667 -100 165.334 -100 278.001
c0 122 39.833 228.5 119.5 319.5s178.167 136.5 295.5 136.5c50 0 96 -8.33301 138 -25c35.333 -14 77 -38 125 -72l62 -45l17 105c2.66699 18 5 38.5 7 61.5s3 44.5 3 64.5c0 141.333 -29 261 -87 359c-66 111.333 -156.667 167 -272 167
c-33.333 0 -67.166 -5.83301 -101.499 -17.5l-101.5 -34.5l-38 -11l-78 97l88 26c40 11.333 73.5 19.166 100.5 23.499s58.833 6.5 95.5 6.5c167.333 0 303.333 -76.667 408 -230c95.333 -139.333 143 -303.666 143 -492.999zM828.998 609l-55.999 52.999
c-22.667 21.333 -43.834 37.5 -63.501 48.5s-44.167 19.833 -73.5 26.5c-18 3.33301 -34 5 -48 5c-68 0 -129 -29.333 -183 -88c-48 -52.667 -83.333 -119.667 -106 -201c-12 -44 -18 -89.333 -18 -136c0 -71.333 14 -132 42 -182c31.333 -56 77.333 -93.333 138 -112
c20 -6 38.667 -9 56 -9c50.667 0 96.667 23.667 138 71c35.333 40.667 66 96.334 92 167.001c20.667 56.667 38 122 52 196z" />
    <glyph glyph-name="Delta" unicode="&#x2206;" horiz-adv-x="1545" 
d="M1471 -1h-1359l725 1524zM1202 99l-450 1063l-498 -1063h948z" />
    <glyph glyph-name="product" unicode="&#x220f;" horiz-adv-x="1828" 
d="M1735 -130l-650.005 -0.00195312v39l54 2c28.667 0 51.5 2 68.5 6s33.5 14 49.5 30c12.667 12.667 21.167 26.834 25.5 42.501s6.5 33.5 6.5 53.5c0 6.66699 -0.166992 13.834 -0.5 21.501s-0.5 15.5 -0.5 23.5v1373h-761v-1360c0 -41.333 2.33301 -71 7 -89
c7.33301 -28.667 23 -52 47 -70c16.667 -12.667 33.834 -20.667 51.501 -24s40.834 -5 69.501 -5h41v-43h-650v46h51c30 0 52.333 1.33301 67 4s30.667 10.667 48 24c21.333 17.333 35 40.666 41 69.999c3.33301 16.667 5 46.334 5 89.001v1238
c0 60 -22.333 109.333 -67 148c-17.333 15.333 -32.666 26.333 -45.999 33c-16.667 8.66699 -34.334 13 -53.001 13l-36 3v43h1632v-46l-46 -2c-18.667 0 -35.167 -3.33301 -49.5 -10s-30.166 -17 -47.499 -31c-26.667 -21.333 -44.5 -46.333 -53.5 -75
s-13.5 -64.334 -13.5 -107.001v-1225c0 -35.333 2.5 -63.166 7.5 -83.499s17.167 -39.5 36.5 -57.5c16.667 -14.667 33.834 -24.667 51.501 -30s39.834 -8 66.501 -8l48 -3v-33z" />
    <glyph glyph-name="radical" unicode="&#x221a;" horiz-adv-x="1157" 
d="M1069 1668l-287 -1766l-470 932l-180 -91l-29 62l276 130l378 -744l247 1486z" />
    <glyph glyph-name="infinity" unicode="&#x221e;" horiz-adv-x="1708" 
d="M1635 540c0 -98 -32.332 -179.001 -96.999 -243.001c-60.667 -60 -133 -90 -217 -90c-55.333 0 -113 12.333 -173 37c-66 27.333 -124.667 65 -176 113l-99 93l-99 -93c-51.333 -47.333 -110 -84.666 -176 -111.999c-61.333 -25.333 -119 -38 -173 -38
c-84 0 -156.333 29.667 -217 89c-65.333 64 -98 145.333 -98 244c0 85.333 31.667 157.666 95 216.999s138.666 89 225.999 89c53.333 0 107 -12.5 161 -37.5s106.333 -60.5 157 -106.5l124 -111l124 111c52 46.667 104.5 82.334 157.5 107.001s106.5 37 160.5 37
c87.333 0 162.5 -29.5 225.5 -88.5s94.5 -131.5 94.5 -217.5zM1525 531.999c-5.33301 58 -28.001 105.333 -68.001 142s-90 55 -150 55c-42.667 0 -81.334 -8.33301 -116.001 -25c-21.333 -10 -55.333 -32.333 -102 -67l-148 -111l138 -128
c32.667 -30.667 66.834 -52.667 102.501 -66s76.834 -20 123.501 -20c65.333 0 118.333 21.333 159 64s61 94.667 61 156zM805 525.999l-148.001 111c-43.333 32 -77.333 54 -102 66c-36 17.333 -74.667 26 -116 26c-59.333 0 -109.166 -18.333 -149.499 -55
s-63.166 -84 -68.499 -142c0 -62 20.167 -114.167 60.5 -156.5s93.5 -63.5 159.5 -63.5c47.333 0 88.166 6.33301 122.499 19s68.833 35 103.5 67z" />
    <glyph glyph-name="integral" unicode="&#x222b;" horiz-adv-x="716" 
d="M640 1606c-2.66699 -22 -12.501 -40.1719 -29.501 -54.5049s-36.833 -21.5 -59.5 -21.5c-14.667 0 -31.334 7.33301 -50.001 22c-13.333 10.667 -22.833 17.334 -28.5 20.001s-11.167 4 -16.5 4c-11.333 0 -19.5 -9 -24.5 -27s-7.5 -42.667 -7.5 -74
c0 -39.333 2.66699 -88.666 8 -147.999c13.333 -149.333 20 -238 20 -266v-644c0 -93.333 -3.66699 -177 -11 -251c-11.333 -114 -30.666 -202.667 -57.999 -266c-35.333 -82.667 -83.666 -124 -144.999 -124c-13.333 0 -28 2 -44 6c-20 6 -38 17.667 -54 35
s-24 36.333 -24 57c0 22.667 7.5 41.834 22.5 57.501s33.5 23.5 55.5 23.5c15.333 0 28 -5 38 -15c28 -27.333 44.333 -41.666 49 -42.999s8 -2 10 -2c18 0 30.667 16.333 38 49s11 76.667 11 132c0 22 -1.16699 62.167 -3.5 120.5s-3.5 100.5 -3.5 126.5v895
c0 84.667 4 156.334 12 215.001c11.333 81.333 29.666 144.333 54.999 189c30.667 53.333 72 80 124 80c28.667 0 55.334 -8.33301 80.001 -25s37 -37 37 -61c-0.666992 -4.66699 -1 -8 -1 -10z" />
    <glyph glyph-name="approxequal" unicode="&#x2248;" horiz-adv-x="1412" 
d="M1331 800l-44.999 -51c-40 -46 -82 -79.667 -126 -101s-95.333 -32 -154 -32c-36.667 0 -74.5 6 -113.5 18l-114.5 36l-186 52l-76 21.5c-25.333 7 -49.333 10.5 -72 10.5c-12.667 0 -28.334 -1.66699 -47.001 -5c-36 -7.33301 -65.667 -17.833 -89 -31.5
s-48.333 -34.834 -75 -63.501l-38 -40l-96 63l31 33c39.333 42.667 78.666 74.834 117.999 96.501s87.333 36.834 144 45.501c24 4 46.333 6 67 6c26.667 0 55.667 -3.33301 87 -10c19.333 -4 50.333 -12.333 93 -25l163 -50c32.667 -10.667 65.834 -20.834 99.501 -30.501
s67.167 -14.5 100.5 -14.5c46 4 82.333 11.333 109 22c32 12.667 62 34 90 64l40 42zM1331 439l-44.998 -51c-40 -46 -81.667 -79.5 -125 -100.5s-95 -31.5 -155 -31.5c-36 0 -73.667 5.83301 -113 17.5l-115 35.5l-186 52l-76 21.5c-25.333 7 -49.333 10.5 -72 10.5
c-12.667 0 -28.334 -1.66699 -47.001 -5c-34.667 -6.66699 -64 -17 -88 -31s-49.333 -35 -76 -63l-38 -41l-96 63l31 34c39.333 42.667 78.666 74.667 117.999 96s87.333 36.333 144 45c24 4 46.333 6 67 6c26.667 0 55.667 -3.33301 87 -10
c19.333 -4 50.333 -12.333 93 -25l163 -49l89 -31c30.667 -10 60 -15 88 -15h14c4 0.666992 7 1 9 1c42 0 78.333 6.33301 109 19s60.667 34.667 90 66l40 42z" />
    <glyph glyph-name="notequal" unicode="&#x2260;" horiz-adv-x="1493" 
d="M1391 461l-3 -138h-743l-224 -395l-121 70l180 323h-393v137h466l196 348h-659v137h735l220 407l118 -68l-184 -336h407v-137h-480l-188 -348h673z" />
    <glyph glyph-name="lessequal" unicode="&#x2264;" horiz-adv-x="1278" 
d="M1175 262l-1082 508v153l1082 508v-144l-951 -443l951 -440v-142zM1174 4h-1081v121h1081v-121z" />
    <glyph glyph-name="greaterequal" unicode="&#x2265;" horiz-adv-x="1272" 
d="M1163 765l-1082 -507v142l950 440l-950 442v144l1082 -507v-154zM1163 -1h-1081v121h1081v-121z" />
    <glyph glyph-name="lozenge" unicode="&#x25ca;" horiz-adv-x="1112" 
d="M1015 750l-388 -753h-128l-394 764l394 727h128zM898 750l-336 628l-337 -620l340 -666z" />
    <glyph glyph-name="nonmarkingreturn" horiz-adv-x="699" 
 />
    </font>
</defs>
</svg>
